/* XPM */
static char *_a7fb1f7f3f049aab46325076232cf10cgOO2iPavCSq7Zh0[] = {
/* columns rows colors chars-per-pixel */
"64 64 253 2 ",
"   c #591316",
".  c #6A2328",
"X  c #346630",
"o  c #707218",
"O  c #487C28",
"+  c #5B7525",
"@  c #577D28",
"#  c #4B7030",
"$  c #487A35",
"%  c #574646",
"&  c #577551",
"*  c #67724E",
"=  c #5E6062",
"-  c #6E726E",
";  c #8E7634",
":  c #AA7939",
">  c #884B51",
",  c #8C704D",
"<  c #AF7952",
"1  c #95576A",
"2  c #A75362",
"3  c #936F70",
"4  c #AD7271",
"5  c #CE7355",
"6  c #D07371",
"7  c #EB7772",
"8  c #55891F",
"9  c #778C1F",
"0  c #4D8326",
"q  c #46852C",
"w  c #4B842B",
"e  c #4C8A2D",
"r  c #528625",
"t  c #5A8626",
"y  c #538A26",
"u  c #5C8B24",
"i  c #52842A",
"p  c #528A2A",
"a  c #5A9228",
"s  c #498833",
"d  c #578A36",
"f  c #4E9030",
"g  c #5A9335",
"h  c #658C27",
"j  c #768828",
"k  c #659224",
"l  c #6A9425",
"z  c #699729",
"x  c #6D9A2C",
"c  c #739B25",
"v  c #779927",
"b  c #739D2B",
"n  c #668934",
"m  c #6A9835",
"M  c #769B36",
"N  c #6DA12D",
"B  c #75A32C",
"V  c #7CA42D",
"C  c #79A929",
"Z  c #7EB22D",
"A  c #7BA532",
"S  c #78A637",
"D  c #7DAD33",
"F  c #7CB234",
"G  c #37904D",
"H  c #399558",
"J  c #389765",
"K  c #379775",
"L  c #3EA267",
"P  c #3DA578",
"I  c #578E4F",
"U  c #6E8F4E",
"Y  c #659444",
"T  c #7B9858",
"R  c #74A14A",
"E  c #4A856F",
"W  c #728D6C",
"Q  c #41AB79",
"!  c #6EB170",
"~  c #938D15",
"^  c #A29E16",
"/  c #95AE1B",
"(  c #AEAD10",
")  c #8C8F2F",
"_  c #AA9433",
"`  c #84A629",
"'  c #82AB2D",
"]  c #84B325",
"[  c #8BB524",
"{  c #83B32C",
"}  c #8AB62B",
"|  c #8CB92D",
" . c #97BC29",
".. c #93BB2D",
"X. c #81A634",
"o. c #83AB34",
"O. c #89AC37",
"+. c #84AC3A",
"@. c #92AB36",
"#. c #83B332",
"$. c #8AB534",
"%. c #8CB934",
"&. c #84B53A",
"*. c #8BB43A",
"=. c #86B83C",
"-. c #8CBA3A",
";. c #93BC35",
":. c #9ABD34",
">. c #91B539",
",. c #94BD3A",
"<. c #99BE3A",
"1. c #A0BE27",
"2. c #A9AE31",
"3. c #C3BC0E",
"4. c #C4AE2F",
"5. c #AAC315",
"6. c #9CC12B",
"7. c #99C137",
"8. c #9AC13A",
"9. c #A4C227",
"0. c #A3C335",
"q. c #DDD60A",
"w. c #DDD909",
"e. c #D4CE12",
"r. c #E3DC0A",
"t. c #E6E108",
"y. c #CDD232",
"u. c #88964F",
"i. c #8EB246",
"p. c #B8AA54",
"a. c #8B8970",
"s. c #AF9464",
"d. c #C5925F",
"f. c #E5826B",
"g. c #91C950",
"h. c #B3D054",
"j. c #99CA6C",
"k. c #93C975",
"l. c #A7CD6A",
"z. c #C2D344",
"x. c #3F6684",
"c. c #695997",
"v. c #5D7292",
"b. c #5A70B0",
"n. c #686AAB",
"m. c #7072AC",
"M. c #6976B6",
"N. c #7376B4",
"B. c #926B97",
"V. c #927592",
"C. c #B07A86",
"Z. c #A57BA9",
"A. c #A979B7",
"S. c #C97C85",
"D. c #EE7D83",
"F. c #38988D",
"G. c #3DA687",
"H. c #3DA59A",
"J. c #3796AD",
"K. c #3A98B8",
"L. c #3DA6AF",
"P. c #4F9191",
"I. c #708C8F",
"U. c #48B28F",
"Y. c #49B499",
"T. c #69B58D",
"R. c #5390B2",
"E. c #728BAB",
"W. c #4AB6A8",
"Q. c #58BBA7",
"!. c #48AFB3",
"~. c #58BCB6",
"^. c #6EB9A6",
"/. c #63B8B9",
"(. c #68C1A7",
"). c #75C5A9",
"_. c #65C2BC",
"`. c #71C6B2",
"'. c #3D98C8",
"]. c #3D99D2",
"[. c #3AA2C9",
"{. c #5288C3",
"}. c #4497CE",
"|. c #4499CE",
" X c #4898C8",
".X c #4697D2",
"XX c #469AD2",
"oX c #4A9BD3",
"OX c #45A6C8",
"+X c #48B6C9",
"@X c #56B9C7",
"#X c #4AA2D6",
"$X c #47A8D6",
"%X c #4AA5D9",
"&X c #4AACDB",
"*X c #49B5D8",
"=X c #4AB3DC",
"-X c #4BBADD",
";X c #51B5D3",
":X c #63B9C3",
">X c #46ADE3",
",X c #46B4E3",
"<X c #4BBBE2",
"1X c #51BEE2",
"2X c #5CC1CA",
"3X c #4FC0DF",
"4X c #58C1D3",
"5X c #51C0DE",
"6X c #5BC3DD",
"7X c #66C4C8",
"8X c #72C8CE",
"9X c #68C6D5",
"0X c #62C5DC",
"qX c #75CBD7",
"wX c #4CC1E4",
"eX c #53C1E2",
"rX c #899693",
"tX c #AE8D94",
"yX c #9BA79E",
"uX c #8F91AA",
"iX c #97A8AD",
"pX c #B3B2B1",
"aX c #D9868C",
"sX c #D18993",
"dX c #ED8488",
"fX c #F5868A",
"gX c #E68D96",
"hX c #F58C94",
"jX c #EB9199",
"kX c #F5959D",
"lX c #F7979C",
"zX c #FB959E",
"xX c #E793A3",
"cX c #F696A1",
"vX c #F897A1",
"bX c #F699A2",
"nX c #FA99A3",
"mX c #FB98AA",
"MX c #C4AFB2",
"NX c #89C787",
"BX c #94C982",
"VX c #89CA96",
"CX c #B2C09D",
"ZX c #B2C8B5",
"AX c #93AFC2",
"SX c #ABB8C9",
"DX c #C2BAC0",
"FX c #B8D3C6",
"GX c #CDD4D3",
"HX c #CAE3D7",
"JX c #DBE8E6",
"KX c #E8F1EE",
"LX c #FEFFFE",
/* pixels */
"qXqXqXqXqXqXqX8X7X7X7X_._.~.~.Q.Q.Q.Y.Y.Y.Y.Y.Y.Y.k.U.j.0.T.(.h.r.h.g.T.(.Q.Q.Q.Q.^._.Q.Q.Q.Q.Y.Y.U.Q Q L P U.W.7X7X7X_.W.U.Q U.",
"qXqXqXqXqXqXqXqXqX8X8X9X7X7X2X_.~.~.Q.~.Q.Q.W.W.NXg.Q.Y.T.~.T.t.(.2X~.~.~._._._._.7X7X7X7X_._.~.Q.Y.U.P L L P Y.~.7X9X~.W.U.Q Q ",
"0X0X0X0X9X0X0X0X0X0X9X0X9X9X7X2X4X2X2X2X~.(.k.j.NX~.j.g.BX2X_.z._.4X2X2X2X7X7X9X9X9X9X9X9X9X7X7X2XW.U.P L H L G.~.2X2X+XW.U.P P ",
"0X0X0X0X0X0X0X6X6X0X0X6X6X6X0X6X4X5X`.BXBXVX).2X4X).l.5Xk._.5XVXh.9X6X0X0X6X9X6X0X0X0X0X0X0X6X6X4X~.H.P H H H P W.2X4X4X+XY.G.P ",
"eX6X6X6X6X6X6X6X6X6X6X6X6X6X6XeX`.BXVX8X0XeXeXeXwXl._.wXVX).eXeXVXh.9XeX6XeX6X6X6X6XeX6X6X6X6X6X4X2XH.P H G H P Y.+XwX+X+XW.U.P ",
"1X1X5X1X5X-X5X5X3X3X3XeX5X5XwXVXBX4XwXeX1XeXeXwX_.l.wXwX).).wX<X3XVXh.5XwX3X3XeX5X1X5XeXwX3X3X3X-XL.H.P G G G P Y.+X+X-X+XW.H.G.",
"1X1X<X-X-X<X-X<X-X3X<X-XwX<X`.NX-X,X<X-X-X1X<X<Xl.(.wX<X`.NX<XwXwXwXk.l.<X<XwXwX=X<X<X<X<X-X-X*X+XL.G.J G G J G.W.+X*X-XwX+XL.Y.",
"<X-X-X-X-X-X-X-X-X-X-X-X-X-Xk.3X-X-X-X-X-X=X,X).l.wX3X-X@Xl.,X<X<X<X,Xh.BX,X-X-X<X-X<X<X<X<X*X*X+XL.G.H G G L H.L.*X-XwX+X+X+XL.",
"=X<X=X=X-X*X=X=X*X*X=X=X,X/.j.,X=X*X=X=X,X,X@Xh.:X=X=X-X=Xl.:X>X=X=X,X@Xy.:X,X=X=X=X1X=X>X-X=X*X[.H.K J H J G.L.+X*X=X=X=X*X+XL.",
">X!.+X>X*X=X=X*X=X=X*X=X=X@Xh.,X=X&X=X=X>X~.h.^.=X=X=X=X>X^.l.>X=X=X=X,Xl.BX>X&X=X=X&X&X=X=X*X$XL.F.K J J K H.L.+X,X=X>X=X*X*X*X",
">Xi.T.>X=X=X&X*X*X=X&X=X=X&Xl.j.@X&X&X/.NXh.^.,X=X&X&X=X*X>Xh.VX>X>X-X>Xj.l.>X&X>X&X=X=X=X&X*XOXL.F.J J K F.L.OX[.*X*X=X&X=X$X$X",
"T u.T.$X&X$X&X;X&X&X&X=X&X&X&Xl.z.y.h.h.BX&X>X>X&X=X=X&X&X>X;Xz.BX;X&X;Xy.VX>X&X&X&X&X&X&X&XOX[.H.F.K K F.L.[.$X,X,X>X$X>X&X=X[.",
"W ) ) !.&X&X&X&X$X&X&X&X&X&X&X&X;X^./.&X>X&X&X;X&X&X&X=X&X=X>X@Xh.z.h.y.l.%X&X&X&X&X&X>X%X#XOXL.F.E E Q H.K.OX$X&X%X%X%X&X&X%X#X",
"! ! OX%X&X&X&X%X&X&X&X;X&X$X&X&X&X&X%X%X%X&X&X&X&X&X&X&X&X&X&X&X>X/.^./.>XoX%X&X%X%X%X%X%X#X[.P.3 f.6 P.L.OXOX#X#X#X#X#XoXoX#XoX",
"u.R /.oX$X%X#X;X$X%X#X%X$X$X$X$X$X$X$X#X$X#X$X$X$X#X%X$X%X%X#X%X%X>X%X>XoX>XoX%X%X#XoX#X#X[.I.6 zXbXD.P.R.].#XoXoXoXoX#XoXoXoX#X",
"#X X#XoX#X#X#X#XoX#X#X#X#X#X#X#X#X#X#X#X#X#X#X#X#X#X#X#X#X#X#X#XoX%XoXoX%XoX#XoX#X#X%X#X].R.6 mXcXcX6 P.oXoXoXoXoX#XoXoXoXoXoXoX",
"oX%X%X#X#X#X%XXXR.@XoX#X#X#X#X#X#X#X%X#XoX#X#X#X#X#X#X#X#X#X#X#XoX%XoX%X#X#X#X#X%X%XoX%X X6 zXkXhXfX3 J.|.OXXXoXoXoXoXoXoXoXoXoX",
"oXoXoXoXoXoX#XoXP.!.oX#XoXoX#XoX#XoXoXoXoX%X#X#X#X#X#X#X#X#X#X#X%XoX%X%X%X%XoX#XoXoX%X].tXhXbXlXkX6 P.K.'.XXoXXXoXoXoXoXoX XoX{.",
"oXoXoXoXoXoXR.!.T.R.oXoXoXoXoXoXoXoXoXoX#XoXoXoXoX#X#X#XoXoX#XoX#XoX#XoXoXoXoX#X#XoX.XE.dXbXlXbXkX4 F.'.|.#XoXoXoXoXoXoXoXoXoXoX",
"oXoXoXoXXXXX XR.P.R.oXoXoXoXoXoXoXoXoXoXoXoXoXoXXXXXoX}.oXoXoXoXoXoXoXoXoXoXXXXXoXoX X- kXxXbXlXlX3 J.'.XXXXoXoXoXoXoXoXoXoXoXoX",
"oXXXoXoXXXXXXXP.T P.oXoX|.oXoXoXoXoX.XoXoXoXoXoXoXoXoX}.}.oXXXXX.XoXoXXX.XXXoXXXoXXXv.% lX3 % kXzX4 J.'.'.XXXXXX.XoXoXoXoX#XoXoX",
"}.}.}.XXXXXXoXE.I.N.{.n.{.oX|.|.oX.XoX.XoXoX.X.XXXXX.XoXXXXXoXoXoXoXXXoXXXXXXXoX%X].V.xXkXjX2 jXlX4 L.K.|.XXoXoXoXoX.X.XoX{.oXoX",
"}.oX}..X.X XM.N.N.N.M.c.b..X Xa.I.I..X.X{.oXoX.X X}.XXXXoXoXoXoXXXoXXXXXXXXXXX}.R.rXpXsXsXtXgXvXlX4 L.'.XX|.XXoXoXXXoX.XoXoX{.oX",
"{.}..X.X.X{.m.N.N.N.n.c.n.M.{.3 3 I..X.XoX.X.X.X.XoXXXXXXXE.C.V.'.].XXXX}.XXXX].E.LXLXyXKXLXpXgXzX4 J.|.].#XoXoXoXoX.X.XXXoXoXoX",
"N.{.#X#XoXb.M.N.N.n.c.b.M.n.M.M.b.b.R..X.X.X.X.X}..X.X}.].V.zXfXC.{.].XXXXXXXXJ.GXMX= GXuXGXGXgXmX6 K.K.].XX X X'.R.V.6 C..X.XXX",
"- x.x.v.{.M.N.N.M.m.b.].}.{.n.m.n.n.b.].'.}.'..X'..X}.}.'.rXzXvXlXS.R.].XX].].v.JXGX3 GX= MXGXaXmX5 Y Y I U I I , 6 fXnXD.E x.F.",
"b l h n & & - m.N.n.n.}.].XX{.n.c.n.{.].'.].].].].].].}.'.m.D.mXbXcXaX- E I I p pXLXGXZXLXLXsXkXmX7 ) S D B ) < D.mXkXmX5 b m m ",
"O.o.` X.A b t & = v.N.M.M.{. XM.n.n.}.].'.'.J.R.F.x.F.& E W 5 mXlXlXkXf._ A &.) s.tXsXsXDXMXgXgXbX7 ) B v ) 7 cXmXvXbXfX) x m m ",
"*.O.O.*.@.' V t @ # = - v.E.n.M.n.n.v.E E I d m h v M b x M : hXbXlXhXvXdX< v _ mXvXmXnXjXsX4 . gXhX) c : fXmXlXlXlXlX5 M m m m ",
"*.O.O.O.*.O.+.+.A b h O # & W & = & n m l c V b b b b x B A X.5 mXlXlXvXbXzX7 7 6 > 2 1 % .   > mXbX: 5 hXbXmXlXbXnX7 j z a d d ",
"' ` O.` o.@.@.*.O.O.O.+.v @ t h f x M m z g z m m x x b b b B : fXbXvXbXbXlX7 zX7       .     sXcXhX7 zXmXlXcXbXmXdX; a a p d d ",
"o.X.O.O.O.O.' D D o.*.+.o.o.M M n @ i d Y m m m m x b b b b x l 5 mXcXcXbXfXD.mX2   . . . . > nXkXdXlXnXnXcXhXhXhX: q e p g d f ",
"' O.o.o.o.+.S S M S S o.o.O.+.i.+.o.A m @ n h m n h h z x x z z ) D.mXlXkX7 gX1   2 gXS.xXB.gXbXvXvXlXvXvXbXkXhX5 0 s d d d d g ",
"o.D O.#.#.O.o.S N b V A X.X.A M b A o.O.O.X.M A m @ # # # O a k u : hXlX7 fXmX4 > tXS.C.C.jXnXvXvXvXvXvXkXcXbX6 @ s s e d g e & ",
"' o.o.+.+.+.o.o.X.A b b b A A M M X.X.' ' o.' ' o.o.A b z t t @ i j 5 D.7 mXnXzXkXaXaXjXnXlXvXvXvXvXvXcXvXmXD.+ q q p g Y g X X ",
"X.C V o.A B A V V B C v ` V v v v B A ` X.` o.' ` b b b m b v k h @ ; 7 lXbXbXhXlXnXnXbXzXnXvXvXvXlXcXbXmXfX; q q q q q g g X $ ",
"B B z N c c B B B V ` ` ` ` ` ` V c B b B v V ` A X.X.` V V ` V V C : fXbXvXvXbXlXvXbXvXvXvXvXvXvXvXbXvXlX5 d g m m m d $ X $ d ",
"l k a k c C B B V V X.` b b l l l c b c v v c c c x V v ` V C C C ` 7 kXlXcXnXlXlXvXvXvXvXcXvXvXbXvXlXbXdX7 @.M S R $ $ s R i.+.",
"8 u u k N c c B B B B c c b l k c v v v c c l l k k x c c c b C C ) fXkXkXvXvXvXvXvXvXcXvXcXzXvXvXvXvXlXkXhX, I X I S i.,.8.-.,.",
"+ u t k l c c k l c B T U b c c c l c l l h h k l l k l k h c B c ; gXbXvXlXnXlXvXcXlXhXvXvXvXvXvXvXvXbXkXvX_ m S f D 8.,.8.8.-.",
"8 t h 9 k l l k k k R rXiXR b x k k a u t w u h k l l 9 l k c k k + < cXlXbXvXnXnXvXlXhXvXvXvXvXnXlXlXzXmXaX; ,.8.8.7.7.,.i.8.,.",
"O 8 t 8 u l l k k k & rXrXT m W I * 0 0 O O u u k k t h k k l l z # ~ 4 mXmXS.4 kXvXvXvXvXvXvXvXcXnXzXzXaX; o :.8.<.8.i.8.,.8.8.",
"@ 8 u h u a 8 k a u X & U U W yXrXW 0 0 0 i t i i @ t h u h k k y + 3.; < jXsX4 S.kXvXvXvXvXvXvXnXmXdXs.) 3.j ,.8.8.,.8.,.8.0.0.",
"O 8 8 8 y a 8 8 y u r y k y - I.rX# O 0 i i O $ $ O i i @ y y w q # ( tX3 * < f.jXvXmXnXmXmXvXjXaX< ; ^ e.e.j 8.,.8.,.,.:.0.0.0.",
"y 8 y 8 r 0 r r r y y y t i $ # % X w O O O q O q q q s q s q w e O ^ p.tXZ.V., , ; s.< 4 < : ) ~ ( e.r.r.( ) <.,.8.-.$.$.%...%.",
"0 q O q 0 0 y r i e 0 r O O 0 O q O O O O $ q $ q s e q w q e d s @ o q.s.A.A.A.B.Z.3 ( ( ( ( e.q.r.q.e.y.o +.-.-.,.=.=.$.;. .:.",
"0 0 0 w 0 0 0 O 0 y r y 0 r 0 w q q O s q q q q s s f q p g s $ d b n o s.Z.A.tXp.Z.p.r.w.w.w.w.q.q.p.A.- M 7.&.i.7.-.-.-.:.0.0.",
"y 8 y 0 0 y 0 0 r y r r 0 0 O q q q w f f q s s s s s g A R m S S &.M o ~ 2.p.p.e.e.r.q.w.w.w.w.w.4.A.B.& 7.=.7.7.=.$.%.-.;.6.9.",
"y y y q O 0 0 0 r t r e i 0 0 w $ w q f f s q q p f f +.X.m M R >.:.+ 3.w.~ ~ 3.q.r.r.r.r.q.r.r.w.e.tX% $.7.6.6.%.$.-.7.#.| | 7.",
"8 y y y e y r 0 r 0 r r 0 i 0 w s s s s s e w t ` B m d d S i.-.<.g.M ^ r.r.e.^ ; ~ ( ( ^ q.q.r.4.uXtX* 6...%.=.=.-.%.%.=.-.%.7.",
"y y y 0 0 e r y y y w y w p w w s s s f g g z ` @.O.M @ >.:.:.,.<.<.8.; ; ^ 3.3.~ v ' v o r.r.r.s.A.A.= $.-.%.,.7.,.-.%.%.%.+.;.",
"y 8 y y 0 y y f y y y p p p i i s $ s m m m n n m +.o.>.;.;.,.<.<.<.,._ D.S.4 < ~ 5.9.0.o ~ ( ( ) B.1 X.,.$.$.,.-.-.,.-.-.u.yXl.",
"y y t r w y y y y y y r p e i d $ # $ n n m o.,.>.:.:.;.:.:.:.8.<.;.*.D 5 hXmX7 ( 5.5.9.6.) 6 4 S.aX_ | %.%.%.-.7.-.*.*.%.a.HXFX",
"y 0 y r p e f g z m a i I d @ Y @.@.v ` ;.,.,.:.:.;.<.:.0.8.8.6...o.F | ( d.7 4.5.5./ [ 9.1.f.mXmXfX_ | { D %.;.u.T T X.7.T FXHX",
"a u y y p g S S Y Y I X $ i.i.2.:. .:.,.;.;.,.,. .1.9.9.9.0.:.#.#.| %.| 5./ / / / C 6.9. . ._ f.mX7 [ B F =.>.u.CXZXGXiXT X.yXJX",
"` m p g S g Y S I m X.X.@.:.:.8.:.:.;.;.,.7.:.6.1.5.5.1. . .C ..7.| | } C c c v C 1.1. . . . ._ _ ) C ..;. .X.yXKXKXHXJXpXrXFXKX",
">.i.i.>.:.%.;.-.-.:.8.0.:.,.,.,.,.,.+.,.<.:.6.6.:.6.....C Z 7.7.{ | Z Z c l k Z  . .[ ....[ ] ] } o.:...} | ` iXHXSXSXFXHXAXA.AX",
"g.<.>.,.,.;.,.,.7.,.7.,.,.,.,.,.%.&.<.,.-.-.-.;.-.%.%.B C =.Z F #.Z ] Z c C ] ] [ [  . .[ ] ] ..:.| [ [ ;.;.;.T W W yXFXHXFXuXSX",
"<.>.%.>.,.>.,.7.,.,.:.,.;.;.%.#.#.;.,.>.-.-.=.=.#.#.&.S =.F F F F Z ] Z { } } | [ .. ...] [  .| ] ] } ..;...| Z o.M ZXJXJXFXGXKX",
"..>.,.<.<.<.7.7.-.,.-.:.%.*.o.C *.-.=.-.-.=.&.&.F F F F &.&.F =.&.{ [ [ [ | %.| ..:...} [ ..%.{ ' #.#.{ ' C Z #.X.pXKXKXJXFXiXGX",
"<.<.<.<.8.,.-.-.;.;.;.:.-.$.A D %.-.=.=.=.$.D $.D =.&.&.=.F %.{ Z } } ] | %.| %.;.;.} ;.7.$.&.Z D F Z C Z F F A W JXKXGXSXI.- - ",
":.<.8.i.-.,.-.,.-.;.;.;.;.-.#.$.-.=.%.*.%.%.#.$.{ -.*.*.=.7.#.{ ] [ } } | | ..%.$.} o.%.#.#.#.Z Z C C D Z Z Z F W HXFXiXiXAXtXN.",
"i.7.,.,.,.,.,.=.$.-.%.%.%.=.$.#.$.$.$.$.%.$.{ ' %.#.#.#.#.Z Z Z ] } } } | | | { #.{ %.#.{ { Z F C N B B C Z #.F S W E.iXFXtXC.MX",
"7.i.-.-.-.;.;.;.-.;.%.%.-.#.#.#.#.Z { { $.} #.{ #.#.Z Z Z Z Z Z ] Z { [ | } } Z C { { #.{ #.Z Z N F N F F F Z F F U uXJXHXtXB.B."
};
