/* XPM */
static char *_57b631c30cc4ec6c15cc7ee64738907F7dQZknfJj4iFE5U[] = {
/* columns rows colors chars-per-pixel */
"64 64 256 2 ",
"   c #020202",
".  c #090A0B",
"X  c #1A0702",
"o  c #181818",
"O  c #151109",
"+  c #2B0301",
"@  c #280702",
"#  c #370804",
"$  c #2B1B04",
"%  c #361301",
"&  c #300A15",
"*  c #372B0F",
"=  c #0E1E23",
"-  c #00262B",
";  c #302E2D",
":  c #251B23",
">  c #491900",
",  c #571102",
"<  c #751802",
"1  c #582808",
"2  c #473502",
"3  c #593805",
"4  c #583A1B",
"5  c #4B2B11",
"6  c #683802",
"7  c #673915",
"8  c #73340D",
"9  c #501C2A",
"0  c #593927",
"q  c #493428",
"w  c #661B32",
"e  c #3E4617",
"r  c #585904",
"t  c #554E0C",
"y  c #784919",
"u  c #6C4D0E",
"i  c #5D600B",
"p  c #686604",
"a  c #727217",
"s  c #6F7011",
"d  c #554C2E",
"f  c #66492A",
"g  c #75512C",
"h  c #6B692B",
"j  c #767936",
"k  c #6F7232",
"l  c #2E5254",
"z  c #285759",
"x  c #575956",
"c  c #514F4A",
"v  c #6B574A",
"b  c #6A6A49",
"n  c #777848",
"m  c #777859",
"M  c #736D54",
"N  c #51766F",
"B  c #6A6868",
"V  c #77756A",
"C  c #797778",
"Z  c #73696B",
"A  c #5B604A",
"S  c #AD0F16",
"D  c #981D16",
"F  c #89571B",
"G  c #975617",
"H  c #884D10",
"J  c #8D5628",
"K  c #8C6B34",
"L  c #986021",
"P  c #80384E",
"I  c #854E48",
"U  c #8B704A",
"Y  c #88796C",
"T  c #A7655F",
"R  c #7D8A0D",
"E  c #798534",
"W  c #7BA220",
"Q  c #7C8346",
"!  c #7A845A",
"~  c #898A00",
"^  c #8D9215",
"/  c #89A402",
"(  c #99AC0D",
")  c #A6BB00",
"_  c #A7BA19",
"`  c #ADAC17",
"'  c #899638",
"]  c #989838",
"[  c #8C8F30",
"{  c #AA9434",
"}  c #98AC30",
"|  c #A6B638",
" . c #ACB131",
".. c #D8BC2E",
"X. c #DEB92B",
"o. c #B6C906",
"O. c #B6C416",
"+. c #B1C80A",
"@. c #B6CB28",
"#. c #B8C638",
"$. c #B6CF2F",
"%. c #BCE139",
"&. c #C5D315",
"*. c #C4D62B",
"=. c #C9DA35",
"-. c #D6D838",
";. c #CCCD2E",
":. c #E9CE33",
">. c #D9E729",
",. c #DAE837",
"<. c #CFE734",
"1. c #EDFC3C",
"2. c #E7F638",
"3. c #F4FD3C",
"4. c #FBFD3E",
"5. c #F8F83B",
"6. c #E6EB32",
"7. c #CFE31F",
"8. c #8B9348",
"9. c #989947",
"0. c #858759",
"q. c #8F9050",
"w. c #99A94C",
"e. c #A5AA46",
"r. c #A7B849",
"t. c #A5B75B",
"y. c #B1B155",
"u. c #8A8A65",
"i. c #989A66",
"p. c #9B9779",
"a. c #8F8772",
"s. c #93B067",
"d. c #A7A767",
"f. c #B7B868",
"g. c #AAAB78",
"h. c #B6B676",
"j. c #AAB46B",
"k. c #A7995E",
"l. c #C8AB50",
"z. c #CEAC6D",
"x. c #E8B46D",
"c. c #D9A851",
"v. c #B9C646",
"b. c #B7C559",
"n. c #B2CF4A",
"m. c #B9C768",
"M. c #BCC876",
"N. c #B3CB66",
"B. c #9CCD7B",
"V. c #CAC948",
"C. c #C7D747",
"Z. c #C7D758",
"A. c #D5D657",
"S. c #CFD350",
"D. c #F2D551",
"F. c #CBE547",
"G. c #D7E849",
"H. c #D9E857",
"J. c #DCF455",
"K. c #D7F14E",
"L. c #E7E947",
"P. c #E8F649",
"I. c #F4FE43",
"U. c #FCFE44",
"Y. c #F4FE4C",
"T. c #FDFD4C",
"R. c #F8F445",
"E. c #E4E855",
"W. c #F7EA52",
"Q. c #E6F756",
"!. c #F5FE55",
"~. c #FDFD53",
"^. c #F3FC5B",
"/. c #FBFD5B",
"(. c #F7F457",
"). c #F8EA4E",
"_. c #C5CA77",
"`. c #CFD26D",
"'. c #ECD66D",
"]. c #DBF266",
"[. c #D4E46C",
"{. c #E9EA66",
"}. c #FCEA6A",
"|. c #E7F566",
" X c #FEFB63",
".X c #F7F666",
"XX c #F2EF77",
"oX c #6C7C83",
"OX c #8A7D84",
"+X c #BC748A",
"@X c #CA7B8E",
"#X c #779597",
"$X c #7DA6A5",
"%X c #5B8787",
"&X c #88868B",
"*X c #978986",
"=X c #989898",
"-X c #9A9487",
";X c #A79C90",
":X c #9EAB8E",
">X c #A8A987",
",X c #B0AD91",
"<X c #A39CA4",
"1X c #94AFB0",
"2X c #A8A9A6",
"3X c #B9B7A7",
"4X c #ACB5B4",
"5X c #9E9DA5",
"6X c #D58DA7",
"7X c #C6BBB6",
"8X c #CEA799",
"9X c #B7C583",
"0X c #B6C0AB",
"qX c #C8D48A",
"wX c #C8C999",
"eX c #CBD396",
"rX c #D0D48F",
"tX c #D8E598",
"yX c #E7F18E",
"uX c #C9C7A5",
"iX c #D5D6A6",
"pX c #CAC8B4",
"aX c #D8D6BB",
"sX c #CDD4A9",
"dX c #D4ECAE",
"fX c #E3E8AA",
"gX c #E5EAB7",
"hX c #ECF4B5",
"jX c #E0DCBF",
"kX c #C1B5C3",
"lX c #B3D7C9",
"zX c #C5C5C7",
"xX c #DAD9C5",
"cX c #DBD8D9",
"vX c #CFCFCF",
"bX c #E4D9DA",
"nX c #EAD9C5",
"mX c #D3F0CC",
"MX c #E9E6CA",
"NX c #F5FBC7",
"BX c #E8E6D8",
"VX c #FAFCDC",
"CX c #F8FCD4",
"ZX c #F0F1D0",
"AX c #D2DBE0",
"SX c #D5E6E6",
"DX c #E9E9EA",
"FX c #FDFEE4",
"GX c #FEFEEC",
"HX c #F7F7E7",
"JX c #FEFEF5",
"KX c #FBF6FD",
"LX c #F5FDFC",
"PX c #FEFEFE",
"IX c #F6F8F4",
"UX c #EEEFED",
/* pixels */
"PXHXk.i 8.FXJXJXPXLXPXPXPXPXPXPXPXGXNXe.R W [.ZXHXGXVXFXPXPXPXJXPXJXPXLXLXLXPXPXPXPXPXJXKXJXPXPXJXJXPXPXPXPXPXPXPXJXJXPXPXPXPXJX",
"HXu.j._.K ,XFXPXPXPXLXPXLXPXPXPXPXFXM.v.J.7.W N.dXrX_.fXVXGXGXGXGXJXPXPXPXPXKXPXPXPXPXJXPXPXPXLXPXJXPXPXKXPXPXPXPXJXJXPXPXPXPXJX",
"wXk k.9.r j ZXJXPXPXPXPXPXPXPXPXPXCXy.H.%.7.K.$.=.H.#.^ M.hXNXNXNXHXJXJXPXJXPXKXPXJXPXLXPXPXPXPXJXPXPXPXPXPXPXPXPXJXPXPXPXPXPXJX",
"9.f.s [ yX`.wXKXPXPXPXPXPXPXPXPXPXhXv.,.o.o.2.I.(.!.!.C.( v.r.' w.tXNXCXNXNXZXGXJXJXJXIXKXLXPXPXPXPXPXPXPXPXPXPXPXPXPXPXPXPXPXPX",
"s e.] r.{.b.g.HXPXPXJXPXPXPXPXJXHXtXn.2.) @.I.!./.I.I.1.!.!.!..XF.` #.v.#.} r.tXNXFXFXHXIXLXLXPXPXLXPXPXPXPXPXPXPXPXPXPXPXPXPXPX",
"s 9.k p ^ } i.JXPXPXPXPXPXPXPXGXgXb.<.I.>.,.;.W.(.-.U.U.U.4.U.R.!.Y.Y.I.Y.Q.@.} tXhXtXqXdXCXFXGXGXJXPXLXPXPXPXPXPXPXPXJXPXPXPXPX",
"8._.t r  .e.7XPXPXPXPXPXPXPXJXCXN.| 2.3.Y.=.r '.`.r ).5.T.U.U.4.Y.T.4.4.4.3.Y.K.-.-.E.C.| b.tXfXMXVXPXPXJXPXJXPXPXPXPXPXPXPXPXPX",
"jX0.d d.[.] MXPXPXPXPXPXPXLXGXfX#.Q.O.P.E.y.s d.9.u XX` 6.T.R.-.T.U.R.U.4.4.U.4.4.5.3.Y.Q.$.} r.w.dXFXPXPXPXLXPXPXPXPXPXPXPXPXPX",
"GXGX;X0.9.t.pXLXPXPXPXLXKXPXGXj.H.Y.-.S.f.i.sXuXg.i.w.r -.T.;.p  XD.` D.R.U.U.U.2.o.&.I.Y.Y.^..X| t.CXJXPXPXPXPXPXPXPXPXPXPXPXPX",
"JXJXJXpXj d.>XIXPXPXPXPXLXPXVXt.P.~.E.] iXGXHXJXJXGX! 8..X}.9.p `.^ p {./.R.U.U.6.) +.6.I.Y.<.*.| r.dXJXPXPXLXPXPXPXPXPXPXPXPXPX",
"PXPXPXGXsXn u.xXPXKXLXLXLXJXNXe.)./.e.sXGXPXPXLXIXLXJXg.j.f.p.>X>XE 9.XX .;.T.4.>.+.+.>.P.<.( O.=.n.hXJXPXPXPXPXPXPXPXPXPXPXPXPX",
"PXPXPXHXFX-XQ >XIXPXPXPXPXGXfX| ~.A.9XHXLXLXSX4X1XvXLX=X:XnXJXPXJXHXeXk p V.T.U.2.&.7.P.P.%.K.<.K.n.tXFXPXPXPXPXPXPXPXPXPXPXPXPX",
"PXPXJXJXKX7Xq.k UXKXPXPXPXFX_.#.^.V.wXPXLXLX1Xz z 1XzX5XHXJXJXLXLXJXJX,XR .X/.U.4.2.3.I.L.$.=.( $.].t.ZXJXPXPXPXPXPXPXPXPXPXPXPX",
"PXPXPXPXPXHX0.j 3XPXJXPXJXCXr.G./.S.sXIXLXSX$X- - #XoXcXPXLX4X1X4XDXLXVX' {./.U.4.4.I.Y.@.G.` / +.].s.CXGXPXPXPXPXPXJXPXPXPXPXPX",
"PXPXPXPXKXPX0.u.b JXGXPXPXgXn.P.(.V.wXJXLXUX$Xz z #XOXDXLXSX$Xz z 4XLXGXqX . XU.U.3.>.+.<.G._ / _ ].M.CXGXPXPXPXPXPXPXPXPXPXPXPX",
"PXPXPXPXPXPXxXb n 0XJXPXJXeXC.Y.!. .9.d.MXLXlXoXN $X2XKXLXSXz - - 1XLXJXiX{ .XT.4.5.O.=.J.G.( / @.].m.NXFXPXPXPXPXPXPXPXPXPXPXPX",
"PXPXPXPXPXPXIXm u.Q JXPXHXqXG.R.E.` G.A.9.MXKXDXSXzX3XKXLXAX%X- z 1XKXGXfX]  XU.U.,.*.K.Q.J.$.O.F.].b.dXGXPXPXPXPXPXPXJXPXPXPXJX",
"JXPXPXPXPXPXLXpXd n xXPXGXqXC.Y.L.( T./.A.9.HXLXPXbX4XIXLXLX1XN oXSXLXGXfX] /.T.R.,.<.J.H.Q.K.,.J.|.b.rXGXLXPXPXPXPXIXPXPXPXPXPX",
"JXPXPXKXPXKXPXJXh V :XPXGXeXC.T.L.s R.!./.S.d.VXJXPX=XDXLXLXLXDXDXLXKXGX_.V.(.T.!.=.,.Q.P.Q.K.J.J.n.' gXGXJXPXPXIXJXJXPXPXPXPXPX",
"PXPXPXPXPXPXPXJX,XA u.xXFXqXG.T.(.` ~ .X~. X`.9.hXuXd pXPXLXJXGXHXHXGXNX[ }.~.I.-._ P.K.=._ K.].| ' dXFXGXJXPXPXPXJXJXPXJXbXBXFX",
"PXPXLXPXPXPXPXPXBXA U j.CX_.E.U.~. Xs p {. X.X.X^ ^ yX9.VXKXPXnXz.c.c.L ..~.U.2.( F.Q.G._ ( F.H.N.NXHXJXPXPXPXKXPXJXPX-Xd k k sX",
"PXPXKXPXPXPXPXPXIXp.i.Q M.b./.4.7.~  .] r ~ P.!.^.^.(.A.q.CXVXz.}.D.'.:.X.U.I.O.=.K.Q.K.@.( H.b.dXGXPXPXLXPXPXPXPXHXM n r 9.fX8.",
"PXPXPXPXPXPXPXPXPXpX0.Q E b.!.4.L.~ v.XX.X_ p ~ ` R.T.~.D.^ e.l.}.D.D.:.X.D.~.O.G.Q.K.Q.K.G.n.w.VXJXPXJXJXPXPXPXPX,Xw.Z.`.^ a i ",
"PXKXPXJXPXPXPXPXPXLXk 8.fX} !.U.~.W.~ R H.|.XXXX.X X~./. X}.'.y.] p ).).D.X.~.*.L.K.J.Q.Q.n.} tXGXPXJXJXJXJXPXPXJX,Xb.~ A.r.`.a ",
"PXPXPXPXPXPXPXPXPXIX;XxXhXr./.R.T.T./.( 2 k w._.'.'.A.'.'.f.K 2 @ 2 ..W.:.D.R.&.$.O.K.Q.[.Z.hXJXPXPXPXPXPXJXPXJXMXh.G.( ~ ] f.s ",
"PXPXPXPXPXPXPXPXJXDXOXxXCXN.<.&.R.T.~.| iXnXh . * s t $ X X + @ % 9.}.;.X.W.;.-.) / $.Q.b.qXFXLXKXPXJXJXGXFXMXuXq.y..XQ.t j 9.p ",
"PXPXPXPXPXPXPXPXPXKXOX4XVXN.G.o.5.T.~.^ iXZXY X ;XHXuX* % + # + 2 }.D.:.T.-._ G./ W @.#.w.sXHXLXPXPXJXGXjXwX[ 9.tX`.b.f.i rXtX[ ",
"PXPXPXPXPXPXPXPXJXPXvXB 9Xb.!.3.U.T.T.V.k M q X OXbXOXX @ + # @ ^  XT.R.U.*.-.P.@./ %.r.9XmXIXLXKXJXaX>X0.q._.m.K 8.h k U n U iX",
"PXPXJXJXPXPXPXPXPXJXPX:Xk n.Q.6.2.U.5. Xz.X + & & 9 & + # # + 3 .X3.4.4.4.&.P.H.F.F.Z.8.p.V 2XMXpX>XE ' M.g.n a.BXFXGXVXFXJXJXPX",
"PXPXPXJXPXPXPXPXPXJXPXFXq.r.K.+.o.3.T.W.3 @ + & & & # # & # % y.(.7.>.3.I.<.,.E.].[.W k Z <Xd u.U Q h.w.k u.HXKXPXPXPXJXPXPXPXJX",
"PXPXPXPXPXPXPXPXJXPXPXGXmXt.$.) o.>.!.{ % # # # w P w P T 4 K ^.,.) o.3.I.=.G.{.`.Q ! BXvXA 0.k j.i.M -XHXJXPXPXPXPXPXPXPXJXPXPX",
"PXPXPXPXPXPXPXPXPXJXJXHXCXN.@.) ) ,.^.^ @ @ + 9 +X6X@X6XT U L.Y.7.) &.3.P.$.{.[.j :XLXLX:Xq i.k j >XJXPXPXPXPXPXPXPXPXKXPXPXPXLX",
"PXPXPXPXPXPXPXPXPXPXJXJXCXM.=.>.>.P.W.'.a O X T 6X@XT y { E.~.U.2.o.6.T.&.C.yXa wXGXPXLXcXa.q 2XPXJXPXPXPXPXPXPXPXPXPXPXPXPXPXPX",
"JXPXPXPXPXPXPXPXPXJXPXJXFXqXK.1.4.5.D.}.}.k.K I I I U l.D.T.3.3.3.1.U.2._ H.|.e CXGXPXJXPXBXB cXPXPXPXPXPXPXPXPXPXPXPXPXPXPXPXPX",
"PXPXPXPXPXPXPXPXPXJXPXGXGXeXZ.!.U.T.W.D.x.x.x.c.8Xx.'.D.W.T.4.4.3.4.I.,.%.F.n.s h V #X! x x 2XLXPXPXPXPXPXPXPXPXPXPXPXPXPXPXPXPX",
"PXPXPXPXPXPXPXPXJXJXJXPXJXiXe.H.Q.L.}.}.XXD.'.D.x.D.D.W.R.5.U.5.2.&.1.,.$.$./ | y.q.m 2X3X0XIXLXPXPXPXPXPXPXPXPXPXPXPXPXPXPXPXPX",
"PXPXPXPXPXJXPXPXPXPXJXPXPXVX8.w.m.b.r.S.{..X.X(.).).R.R.T.U.R.U.>.o.3.P.*.%./ @.|.[.>XmXJXLXPXPXPXPXPXPXPXPXPXPXPXPXPXPXPXPXPXPX",
"PXPXPXPXPXJXPXPXLXPXPXPXPXJXY q.hXhXdXE r.| _ A./.~./.!.Y./.T.U.3.3.3.1.@.Q.%.H.F.r.9XHXIXKXPXPXPXPXPXPXPXPXPXPXPXPXPXPXPXPXPXPX",
"PXPXPXPXPXJXPXPXPXPXPXPXPXPX7XM FXGXFXZXi.h.h u { ..| | F.Q.Y.!.U.U.4.3.@.].].N.B.s.0XLXLXPXPXIXPXPXPXPXPXPXPXPXPXPXPXPXPXPXPXPX",
"PXPXPXPXPXJXPXPXPXLXJXPXKXJXJXc M a.3XBXVX8XnXU 6 u K _.n.^ #.;.;.;.!.Q.%.n.w.s.dX:X1XLXLXJXJXPXPXPXPXPXPXPXPXPXPXPXPXPXPXPXPXPX",
"PXPXPXPXPXPXPXPXPXPXPXPXPXPXPXB d q f d g g a.U < T 8XM 0.iX_.m.qX_.} ' W 9XmXlXlXA V LXPXPXPXJXPXPXPXPXPXPXPXPXPXPXPXPXPXPXPXPX",
"PXPXPXPXPXPXPXPXPXPXPXPXPXPXPX2Xq # + % g 7 0 8 D S I p.8XnXCXNXCXCXhXqX! mXlX! l e c DXKXKXKXPXPXPXPXPXPXPXPXPXPXPXPXPXPXPXPXPX",
"PXPXPXPXPXPXPXPXPXPXPXPXJXPXPXBX4 g H 8 G < + , S S , 4 f f f U k.,XhXZX! ! * : X $ q bXKXPXPXLXPXPXPXPXPXPXPXPXPXPXPXPXPXPXPXPX",
"PXPXPXPXPXPXPXPXPXPXPXJXPXPXPXKXf J F G G J J 8 S S , + @ > y u f g 7 f $ * @ X % 5 * nXPXPXPXPXPXPXPXPXPXPXPXPXPXPXPXPXPXPXPXPX",
"PXPXJXPXPXPXPXPXPXPXPXPXJXPXPXPXY 4 y H 6 H H D D S < 8 8 6 F > + + 6 J 1 1 > 5 5 5 % 3XJXPXJXJXPXPXPXPXPXPXPXPXPXPXPXPXPXPXPXPX",
"PXPXPXPXPXPXPXPXPXPXPXPXPXPXPXPXHXu.$ > 6 1 H J < , 8 J J J F J y 8 H G 8 > 7 1 1 1 * 2XJXPXPXPXPXPXPXPXPXPXPXPXPXPXPXPXPXPXPXPX",
"PXPXPXJXPXPXPXPXPXPXPXPXPXPXPXPXbXq 6 G G H , # 0 0 f f g y y y J F G G H , 1 5 > % zXKXPXPXPXLXPXPXPXPXPXPXPXPXPXPXPXPXPXPXPXPX",
"PXPXPXPXPXPXPXPXPXPXPXJXPXPXPXKXY 5 u H G G g v KXUX7Xp.M f f 7 f u 8 y 7 , 1 > 5 v nXbXJXPXLXLXPXPXPXPXPXPXPXPXPXPXPXPXPXPXPXPX",
"PXPXPXPXPXPXPXPXPXPXJXPXJXJXPXKX*X5 3 u H F f nXKXLXPXJXGXGXHXvX=XY v * % > u F 3 t U q.uXaXIXKXPXPXPXPXPXPXPXPXPXPXPXPXPXPXPXPX",
"PXPXPXPXPXPXPXPXPXPXJXJXPXPXPXJX>Xt z.3 y t ;XJXJXKXPXPXJXPXKXKXLXLXPX7Xv f y u 3 U ,Xg.n m 2XvXDXPXDXzXDXPXKXPXPXPXPXPXPXPXPXPX",
"PXPXJXPXPXJXPXPXPXPXPXPXPXPXJXuXE f.t > 0 I UXKXPXLXPXJXJXPXPXPXPXPXPXKXcXv f f 3XbXu.b p.a.c B 5XzXc : x cXPXJXPXPXPXPXPXPXPXPX",
"PXPXPXJXPXJXPXPXPXJXPXPXPXJXpX0.j.h t d U vXKXKXPXPXPXJXPXPXPXJXPXJXKXKXKXKX*X7XPXPXGXFX3XZ C C =XC ;     x UXPXPXPXPXPXPXPXPXPX",
"PXPXPXPXPXPXPXPXJXPXPXPXPXZXQ j.n >X3X*XDXKXJXPXJXPXPXPXJXPXPXJXJXPXKXPXPXKXJXPXKXPXLXPXPXJXbX&XV &XZ .   . 4XPXPXPXPXPXPXPXPXPX",
"PXPXPXPXPXPXPXPXPXPXKXPXPX3Xh.8.,XJXJXPXKXPXJXJXJXJXPXPXPXPXJXPXJXJXPXPXPXLXPXPXLXLXLXLXPXPXKXPXDXc         &XPXPXPXPXPXPXPXPXPX",
"PXPXPXPXPXPXPXPXPXPXPXKXLXMXq.9XV PXPXLXJXLXPXJXJXJXKXPXPXPXKXPXPXPXPXLXPXJXPXPXLXJXIXPXKXPXPXPXLX2X    . ; zXPXPXPXPXPXPXPXPXPX",
"PXPXPXPXPXPXPXPXJXPXPXPXLXGXg.Q a.5XPXLXKXJXPXJXPXPXPXPXPXPXPXPXPXPXPXPXPXJXPXPXJXJXPXLXJXPXPXPXLXUX: . o 2XUXPXPXPXPXPXPXPXPXPX",
"PXPXPXPXPXPXPXJXPXPXPXKXPXPXBXm <XC cXLXLXLXPXPXPXPXPXPXPXLXPXPXLXPXPXPXPXPXKXPXJXPXPXPXPXPXPXKXvXc .   . 4XKXPXPXPXPXPXPXPXPXPX",
"PXPXPXPXPXPXJXJXPXJXPXPXPXPXPXbXZ *XB &XLXLXPXKXPXPXPXLXPXPXPXPXPXPXPXPXPXPXPXPXKXPXPXPXPXPXPXJXoXo c .   Z PXPXPXPXPXPXPXPXPXPX",
"PXPXPXPXPXPXPXPXPXPXPXPXPXKXPXPXkX&X4X: x LXIXPXKXPXPXPXPXLXJXPXPXPXPXPXPXPXPXKXPXPXPXPXPXJXPXPXx O :     ; IXPXPXPXPXPXPXPXPXPX",
"JXPXPXPXPXPXPXPXPXIXPXPXPXzXZ =X5X: :   . 2XPXJXPXPXPXPXPXPXJXPXPXPXPXPXPXPXPXPXPXPXPXPXPXPXJXPX2X      . Z PXPXPXPXPXPXPXPXPXPX",
"PXPXPXPXPXPXPXPXPXPXPXPXvX: . O O       . =XPXPXPXPXPXPXLXPXPXPXPXPXPXPXPXPXPXPXPXPXPXPXPXJXPXPXDXC   : oXUXPXPXPXPXPXPXPXPXPXPX",
"PXPXPXPXPXPXPXPXLXPXPXLX&X  a.;         . 4XPXKXPXPXPXLXPXPXPXPXPXPXPXPXPXPXLXIXPXPXPXPXPXPXPXPXPXUXUXUXJXLXPXPXPXPXPXPXPXPXPXPX",
"PXPXJXPXPXPXPXPXPXJXPXPX5X. .     . . . : zXPXPXPXPXPXPXPXPXPXPXPXPXLXPXPXPXPXLXPXKXPXPXPXIXPXPXPXLXPXPXKXPXPXPXPXPXPXPXPXPXPXPX",
"PXPXJXPXPXPXPXPXJXJXLXKXDX:       c oX&XcXPXJXJXPXJXPXPXPXPXPXPXPXLXPXPXPXPXLXPXPXPXPXPXLXLXLXPXPXPXPXPXPXPXJXPXPXPXPXPXPXPXPXPX"
};
