/* XPM */
static char *_318ba9208e04728f4d0c411e46f8e1azEK1XpBaXkWL2Aqq[] = {
/* columns rows colors chars-per-pixel */
"64 64 208 2 ",
"   c None",
".  c #1E1A1E",
"X  c #181418",
"o  c #0D080D",
"O  c #241D1D",
"+  c #2F2318",
"@  c #0E1224",
"#  c #221D22",
"$  c #252225",
"%  c #2A252A",
"&  c #2D2B2C",
"*  c #332B27",
"=  c #35312D",
"-  c #2B2C3A",
";  c #322D31",
":  c #333333",
">  c #3C3C3B",
",  c #373738",
"<  c #540009",
"1  c #71171F",
"2  c #432D15",
"3  c #4B3318",
"4  c #583915",
"5  c #623E12",
"6  c #463625",
"7  c #473D36",
"8  c #513B24",
"9  c #6D282D",
"0  c #3D403D",
"q  c #674316",
"w  c #7A4D11",
"e  c #774E19",
"r  c #76470C",
"t  c #44433F",
"y  c #5D4120",
"u  c #6D4C24",
"i  c #76613A",
"p  c #313544",
"a  c #383C47",
"s  c #383D53",
"d  c #463F46",
"f  c #3E4457",
"g  c #3C424E",
"h  c #434342",
"j  c #464945",
"k  c #484B4A",
"l  c #4D524C",
"z  c #50534F",
"x  c #42495B",
"c  c #545553",
"v  c #545B54",
"b  c #595D57",
"n  c #4F5351",
"m  c #7F5246",
"M  c #5C635B",
"N  c #5A6359",
"B  c #6F6547",
"V  c #656A5D",
"C  c #7D7759",
"Z  c #424A63",
"A  c #49536A",
"S  c #575D66",
"D  c #4B5672",
"F  c #525E76",
"G  c #464F72",
"H  c #5B6362",
"J  c #59667C",
"K  c #58667A",
"L  c #636C62",
"P  c #666967",
"I  c #657266",
"U  c #6A7365",
"Y  c #6A746A",
"T  c #6E7A6E",
"R  c #657969",
"E  c #727B6C",
"W  c #727D71",
"Q  c #7C7E7A",
"!  c #853936",
"~  c #8D570F",
"^  c #8A5715",
"/  c #925C13",
"(  c #955F15",
")  c #804F0F",
"_  c #9A6317",
"`  c #8F611E",
"'  c #B86D09",
"]  c #A46612",
"[  c #B26E10",
"{  c #B97312",
"}  c #B06B0E",
"|  c #8D6A2F",
" . c #CB7B0E",
".. c #D17E0D",
"X. c #C37913",
"o. c #834C44",
"O. c #887D56",
"+. c #947741",
"@. c #748174",
"#. c #788577",
"$. c #7A8479",
"%. c #7C8A7B",
"&. c #758B79",
"*. c #7A917E",
"=. c #77937F",
"-. c #6B8171",
";. c #DB840D",
":. c #D6830F",
">. c #D48310",
",. c #E48A0E",
"<. c #E88D0C",
"1. c #EE900F",
"2. c #F1920F",
"3. c #F9970E",
"4. c #FB990F",
"5. c #E98E10",
"6. c #818E7E",
"7. c #86947E",
"8. c #99997A",
"9. c #84866E",
"0. c #5B6A87",
"q. c #677789",
"w. c #687A96",
"e. c #798A87",
"r. c #7D9782",
"t. c #6F839A",
"y. c #78A185",
"u. c #758BA9",
"i. c #7B92AE",
"p. c #7B94B3",
"a. c #848D82",
"s. c #839383",
"d. c #859A86",
"f. c #859B88",
"g. c #8C9D8B",
"h. c #879888",
"j. c #949C82",
"k. c #8A9C93",
"l. c #8DA18D",
"z. c #85A28A",
"x. c #96A189",
"c. c #8AA691",
"v. c #93A592",
"b. c #96A995",
"n. c #98AC97",
"m. c #9AAD99",
"M. c #95AC9C",
"N. c #92B69A",
"B. c #9DB29C",
"V. c #96BA9E",
"C. c #97B59B",
"Z. c #8FB598",
"A. c #B9B98F",
"S. c #A1B59E",
"D. c #B1A784",
"F. c #839CBD",
"G. c #9FB7A4",
"H. c #89A3BC",
"J. c #9FB8B4",
"K. c #93AAAC",
"L. c #A2B6A1",
"P. c #A5BBA4",
"I. c #A9BFA7",
"U. c #A4BFAC",
"Y. c #D3B68C",
"T. c #9EC3A5",
"R. c #A0C5A7",
"E. c #A3C7A9",
"W. c #ACC3AB",
"Q. c #A4CBAB",
"!. c #AACAAD",
"~. c #B0C7AE",
"^. c #B0C9AF",
"/. c #ACC8B5",
"(. c #B4CDB3",
"). c #B2CCBD",
"_. c #B6D1B6",
"`. c #B8D2B7",
"'. c #BBD5BA",
"]. c #BED9BD",
"[. c #B5D0BC",
"{. c #A9D2B1",
"}. c #CEC495",
"|. c #D7D39F",
" X c #D7D3A3",
".X c #C0DBBF",
"XX c #E9DCA5",
"oX c #EFEAAF",
"OX c #FBF5B6",
"+X c #FFFBBB",
"@X c #ECE7B1",
"#X c #8DAACD",
"$X c #8AA6C7",
"%X c #92AEC8",
"&X c #95B2CD",
"*X c #A0BCC7",
"=X c #BDDAC2",
"-X c #A6C2CA",
";X c #C1DCC0",
":X c #C4DFC2",
">X c #C2DDC1",
",X c #C6E2C5",
"<X c #C6E2C5",
"1X c #C8E4C7",
"2X c #CAE6C9",
"3X c #CCE9CB",
"4X c #D0EECF",
"5X c #D2F0D0",
/* pixels */
"                                                                        $.P P 6.a.                                              ",
"                                                            a.v.m.W.'..X;X:X.XW.'.].N.G.L.n.g.$.                                ",
"                                                    L s.~.<X3X^.P.S.v.v.n.B.L.y.R.<XR.!.<X<X2X<X`.P.a.V                         ",
"                                                  E '.<XW.S.m.b.v.m.m.B.B.n.v.s.a.P.E.N.<XE.N.;X;X<X].Z.P.%.c                   ",
"                                                l ].<X].(.W.W.P.S.S.b.g.s.*.s.b.I.W.:X<X;X;X].;X;X;X].!.=X1X'.n.M               ",
"                                                j ~.<X'.l.h.h.s.h.l.n.I.'..X~.v.%.v.;X;X;X;X;X;X;X;X;X;X;X;X1X].!.g.l           ",
"                                                  M ~.(.W.W.^.(._.W.b.d.s.g.W.1X<X`.].;X;X;X;X;X;X;X;X;X;X].V.!.V.3X'.M #       ",
"                                                  l r.f.r.*.&.I N d.B.W.'.'.'.;X;X;X;X;X;X;X;X;X;X;X;X;X;X.X'.].:XV._.1Xs..     ",
"                                              v z.Q.Q.Q.Q.{.*.R z.V.c.d.=.*.l.!.<X<X.X.X;X;X;X;X=X;X;X;X;X;X;X;X;XT.!.:X2XE X   ",
"                                          , I {.Q.T.R.Q.T.N R !.!.Q.Q.Q.Q.T.N.7.N n.]..X;X;X;X.X.X;X;X;X;X;X;X;X;X:X;X;X:X_.% $ ",
"                                        h *.g.l.&.-.=.=.I R T.d.c.N.T.R.Q.T.T.Q.k B.!..X;X;X;X;X.X;X;X;X;X;X;X;X;X;X;X;X.X<Xk o ",
"                                        = }.9 < i A.8.* -.7.E E R R =.T.Q.Q.Q.Z.v .X<X.X;X;X;X;X;X;X;X.X;X;X;X;X;X.X;X;X,X!.$ X ",
"                                  c P   % 8.o.9 8.|.8.* oX! < o.|.A.7.7.z.c.T.v %.1X.X.X.X.X].;X.X;X;X;X;X;X;X;X;X:X1X1XW.j O   ",
"                              : B.n.n.P.P.W.`.`..X.XW * |.! 1 Y.+X+XOXoX|.D.t T .X.X.X1X1X1X1X1X1X<X<X<X1X1X1X1X;X(.v.v $ o     ",
"                              : v.I..X:X:X:X;X:X2X6.Q 7.V }.XXOX+XOXOXoXA.9.l.<X<X:X.X*.b U @.s.l.m.m.m.v.s.@.L l , .           ",
"                            L S.<X:X;X>X.X.X;X:XP.j '.2XS.6.j.x.8.x.8.l.C.`.`.W.W.S.U %                                         ",
"                          z L.1X;X;X;X.X;X;X;X;Xk N B.I.(.'.'.`.'.].:X1X1X:X(.(._.^.n.P.P.s.M &                                 ",
"                          Y 1X;X;X;X;X;X;X;X1Xg.& ~.W.W.P.n.l.s.h.k.v.b.m.B.P.P.S.b.Y L `.4X4Xs.#                               ",
"                          %.1X;X;X;X;X.X;X<X].0 ; M $.W s.B.W.(.(.`.(._.(.(.`.'.'._.'.~.P.v.@.>                                 ",
"                          L 2X<X:X;X<X<X2XI.l &       & b.P.S.P.s.0 P Y L N b V M V b                                           ",
"                          , Y L.(._.~.m.E % $       % @.3X;X2XP.h                                                               ",
"                                7 , : #             M ;X;X1XS.,                                                                 ",
"                                                  k ~.<X2Xm.>                                                                   ",
"                                                ; l.1X1Xh.%                                                                     ",
"                                        * e X./ T 2X=Xb.q 4                                                                     ",
"                                      * ( r <.i V.8.+.] 1.,.6                                                                   ",
"                                u _ q 4 [ q 2 8 4 ;.3.4.;.[ ) ` u                                                               ",
"                        u ` { :.2.1.5 :.4.w q 1.~ w { / ] >.2.3.1.X.( y                                                         ",
"                    = X.2.4.3.3.4.] w 3.2.1.2.2.2.{  .,.>.,.3.2.2.3.4.2. .( r 7                                                 ",
"              P 6.n.m.| ..1.,.X.^ 4 ;.2.1.1.2.2.2.3.2.2.>.2 ^ 5.4.2.,.( O.8.O.t                                                 ",
"        @.h.I.:X3X].m.H * u 8   @ / 3.2.2.2.2.2.2.2.2.2.2.5 @ 3 / ,.~ 6 @.(.2X.Xm.$.                                            ",
"  k v.'.1X1X`.B.W b             4 1.2.2.2.2.2.2.2.2.1.2.3.{ &     6 q q   & L P.1X2X.XL.$.                                      ",
"  I 1X<X<X^.#.k               * >.2.2.2.2.2.2.2.2.1.2.2.2.;.7                 7 V P.2X2X;XW.s.z                                 ",
"    I <X.X.X<X'.@.:           ^ 3.2.1.2.1.1.2.1.2.2.2.2.2.2.2                     ; Y s.h.].2X_.6.,                             ",
"      #.<X<X=X<X<XL.L       6 :.2.2.2.1.2.2.2.2.2.1.2.2.2.2.4                 b Y e.v.~.;X;X<X2X^.h                             ",
"        E ].<X].;X<X].$.    ^ 3.2.2.2.2.1.2.2.2.2.2.2.2.2.4.q         W s.g.I.=X1X1X:X:X<X1XW.%.h                               ",
"    S n % b `.<X;X;X;X2Xg.2 ,.2.2.2.1.2.2.2.2.2.2.2.2.2.2.' 3 k %.P.].1X1X1X:X:X<X1X1X'.m.T ,                                   ",
"  H $Xf s p S ^.:X;X;X1Xn.~ 3.2.2.2.2.2.2.2.2.2.1.2.3.' 3 Y E.:X1X<X;X].:X1X1X'.W.l.W b                                         ",
"  c K.p.w.F Z N <X.X;X<XC ,.3.3.2.2.1.1.2.2.2.2.2.2.r : P.1X<X;X;X;X;X1XW.@.b c                                                 ",
"    T J.*Xq.N l.<X=X;X[.B ] ' ..,.1.3.3.2.3.3.3.3.,.+ b.2X;X.X.X;X;X=X@., p K f a f S                                           ",
"      b h.~.<X2X1X1X<X(.e.k &.U B i ` ` ` _ ] _ _ ~ O g.2X.X=X.X;X<X&.- D F.F A x w.$XH                                         ",
"            N L T @.L b ; E 4X1X:X]././.E.G.G.M.M.M.m.V 7.].1X1X<X<XT D J $X#X&XK.e.v                                           ",
"                          M 3X.X=X.X;X;X:X;X;X<X<X<X<X<Xv.> U n.W.(.].)./.K.h.$.U                                               ",
"                          , l.1X1X<X<X.X;X;X;X;X.X.X1X.XU %                                                                     ",
"                            ; v s.B.^.'.<X;X;X;X.X<Xg.k %                                                                       ",
"                              X v T L l Y <X;X;X1X#.X                                                                           ",
"                              ; : `.2Xn.: '.;X;X].:                                                                             ",
"                                X Y 2X_., I.:X<X(.%                                                                             ",
"                                ; ; '.1Xl v.<X<XI.%                                                                             ",
"                                  O g.3XL *.1X<XB.,                                                                             ",
"                                  # L 4X#.@.1X<XL.j                                                                             ",
"                                  ; l 2Xh.Y 1X<X(.z                                                                             ",
"                                  n z 2Xg.L 1X<X(.j                                                                             ",
"                                  c z 2Xv.M 2X;X'.d                                                                             ",
"                                  d N 3Xb.M 2X;X:Xv                                                                             ",
"      > $.v.g.U ,                 O @.3Xn.N 2X;X1XY                 > @.h.s.L                                                   ",
"    $ B.3X3X2X3XW.j               & B.1XB.M 2X;X1Xh.&             & 6.5X1X'.^.V #                                               ",
"  . j 2XL.a.a.e.h.s.z             k .X:XP.M 2X.X;X].k ; c         , ~.v.$.e.t.K g                                               ",
"  X k @.0.0.J u.i.k.Y g.~.I.W.W.j s.1X:XW.v ;X;X.X<X_.s.%.a.%.W Y U $.v.-X#XK 0.D J d                                           ",
"  : X w.i.s G a #X-X(.j $.L.P.&.Y <X.X:X_.l (.<X;X.X;X<X`.b.s.m.W U ].1X-X$XZ 0.f p.p.a                                         ",
"    a #X$XF D D #X$X>Xm.: P.I.s.E L.<X;X.XN W.1X<X:X;X;X;X:X1X1X^..X;X.X*X#X#Xi.F.$X#XJ                                         ",
"    a p.0.w.F.F.w.F.J.:Xg..X1X2X<X:X1X;X(.v @.B.W._.:X1X1X1X1X:X1X<X<X).%Xu.w.#Xu.D F K h                                       ",
"    , f p p u.Z G a w.-X=X(.~.m.l.h.%.            c Y $.g.v.b.G.L.G.K.H.q.Z s w.0.f Z &                                         ",
"              P S d p S P                                                                                                       "
};
