/* XPM */
static char *d07a962cee2e468ffa7592f99edcf8d4mr3UYCpOeBZkxR2C[] = {
/* columns rows colors chars-per-pixel */
"64 64 256 2 ",
"   c #010202",
".  c #030409",
"X  c #050214",
"o  c #0E1706",
"O  c #302E0D",
"+  c #13112C",
"@  c #2D312E",
"#  c #0E3116",
"$  c #4E1707",
"%  c #740D07",
"&  c #4F2E0E",
"*  c #773716",
"=  c #6E2F0D",
"-  c #713125",
";  c #533535",
":  c #334D19",
">  c #334629",
",  c #2F5A32",
"<  c #514F16",
"1  c #794517",
"2  c #6B4E1A",
"3  c #4E4B31",
"4  c #724F2C",
"5  c #4E6833",
"6  c #6B7134",
"7  c #65700E",
"8  c #352C52",
"9  c #3E3864",
"0  c #4C386D",
"q  c #45314B",
"w  c #364A4E",
"e  c #35545F",
"r  c #53534C",
"t  c #704E4A",
"y  c #53714C",
"u  c #70704C",
"i  c #4B5171",
"p  c #536D6A",
"a  c #6B6E6C",
"s  c #88120C",
"d  c #893718",
"f  c #923212",
"g  c #A8361A",
"h  c #AE2D16",
"j  c #92322A",
"k  c #AF352A",
"l  c #AB1A0C",
"z  c #D92A19",
"x  c #CE321B",
"c  c #E32B1B",
"v  c #E72719",
"b  c #E03019",
"n  c #D72D24",
"m  c #C93726",
"M  c #D83325",
"N  c #C9342B",
"B  c #E52E24",
"V  c #C11A12",
"C  c #87471B",
"Z  c #99461B",
"A  c #8D531A",
"S  c #AA4815",
"D  c #874727",
"F  c #985626",
"G  c #94502D",
"H  c #A84728",
"J  c #B64726",
"K  c #AF5332",
"L  c #926D30",
"P  c #AC7235",
"I  c #DA492D",
"U  c #D94C35",
"Y  c #CD4E30",
"T  c #E15239",
"R  c #B45644",
"E  c #927348",
"W  c #B0734A",
"Q  c #975859",
"!  c #CA5745",
"~  c #CB7150",
"^  c #F07355",
"/  c #F27964",
"(  c #F85E4F",
")  c #8A3B41",
"_  c #3D9D39",
"`  c #519638",
"'  c #70963A",
"]  c #49A43C",
"[  c #57A43C",
"{  c #59AC34",
"}  c #6AA63B",
"|  c #76AA3B",
" . c #73B23E",
".. c #3CA342",
"X. c #519148",
"o. c #6A9C4B",
"O. c #72934E",
"+. c #49A747",
"@. c #56A848",
"#. c #57B34C",
"$. c #56AB54",
"%. c #5BB354",
"&. c #59B858",
"*. c #4DB151",
"=. c #65A847",
"-. c #77AB47",
";. c #6CB44B",
":. c #78B448",
">. c #65A955",
",. c #7AAA56",
"<. c #67B856",
"1. c #78B755",
"2. c #6F8F6C",
"3. c #69BA65",
"4. c #78B968",
"5. c #70B16A",
"6. c #54A160",
"7. c #68C25C",
"8. c #77C459",
"9. c #6AC365",
"0. c #77C766",
"q. c #79CB77",
"w. c #75D277",
"e. c #57C15D",
"r. c #86B23D",
"t. c #9E8B3E",
"y. c #8F904B",
"u. c #B0894D",
"i. c #87AA48",
"p. c #87B749",
"a. c #87BA56",
"s. c #96BA57",
"d. c #95AC53",
"f. c #ABB653",
"g. c #93966C",
"h. c #8EAE69",
"j. c #B0B072",
"k. c #AA9870",
"l. c #C58E56",
"z. c #D09567",
"x. c #FC9174",
"c. c #D2AD6D",
"v. c #E6B071",
"b. c #D0A35F",
"n. c #87C458",
"m. c #98C359",
"M. c #A8C658",
"N. c #B4CB58",
"B. c #B7D45E",
"V. c #85C766",
"C. c #98C764",
"Z. c #88C677",
"A. c #A7CA65",
"S. c #AAD369",
"D. c #B7D668",
"F. c #B8D776",
"G. c #B1D073",
"H. c #B7E377",
"J. c #EDED5C",
"K. c #F4EA5C",
"L. c #EDF15C",
"P. c #C5D868",
"I. c #CED574",
"U. c #ECCA79",
"Y. c #C8E579",
"T. c #D8EA79",
"R. c #D2ED74",
"E. c #EDE56C",
"W. c #EDEB6C",
"Q. c #E9EB67",
"!. c #F2EB6D",
"~. c #F3E868",
"^. c #ECF167",
"/. c #E5EC74",
"(. c #ECEC75",
"). c #ECE67B",
"_. c #E5EC7C",
"`. c #ECEC7C",
"'. c #E8E576",
"]. c #F3E674",
"[. c #F2EB74",
"{. c #F3E67A",
"}. c #F3EC7C",
"|. c #F9EC79",
" X c #E4F37C",
".X c #ECF27B",
"XX c #E9F275",
"oX c #F2F27C",
"OX c #F3F174",
"+X c #F3F266",
"@X c #523B84",
"#X c #585389",
"$X c #664F95",
"%X c #705AAB",
"&X c #7566A9",
"*X c #7367B1",
"=X c #646C95",
"-X c #7863C0",
";X c #917784",
":X c #738D91",
">X c #7896B4",
",X c #7AA4B9",
"<X c #7ACC88",
"1X c #94AA86",
"2X c #B6BC86",
"3X c #8EAEB4",
"4X c #A09AA0",
"5X c #FC9C86",
"6X c #FCA888",
"7X c #F2B38B",
"8X c #D6BC8E",
"9X c #A5CF91",
"0X c #D0D290",
"qX c #F0D38C",
"wX c #C7E785",
"eX c #D9EB85",
"rX c #DAF488",
"tX c #DDF994",
"yX c #D3F197",
"uX c #E5EC83",
"iX c #ECEC83",
"pX c #ECED8B",
"aX c #E6EA87",
"sX c #F3EC83",
"dX c #F3EC8B",
"fX c #F9E988",
"gX c #E4F483",
"hX c #EBF284",
"jX c #E4F48C",
"kX c #ECF28B",
"lX c #E9FA86",
"zX c #F3F284",
"xX c #F3F28C",
"cX c #F8F489",
"vX c #EDEC93",
"bX c #E9EB98",
"nX c #F3EC93",
"mX c #F9EB97",
"MX c #ECF293",
"NX c #E8F697",
"BX c #F3F292",
"VX c #F6F398",
"CX c #F8DDA9",
"ZX c #D8ECA5",
"AX c #FAEBA5",
"SX c #EBF5A5",
"DX c #F5F4A4",
"FX c #F1F3AB",
"GX c #94B5CD",
"HX c #98C8DC",
"JX c #A5C9DA",
"KX c #ACCCD2",
"LX c #9ACAE4",
"PX c #9CD1E4",
"IX c #A3CBE5",
"UX c #A5D2E3",
/* pixels */
"I.P.I.'.T.I.uXjXF.;.#...+.7.;.H.pX{.'./.(.].].`.aXeXV.;.#.+...3.<.C.lX!.[.W.XXP.:.<.] 7...*.&.%.} D.iX`.].[.W.W.~.`.R.r.8.{ &.3.",
"hX_.aXaXvXeXY.a.} @.#.*._ &.<.i.iX{.oXW.[.[.}..XP.i.=.+.#.#...%.;.-. XOXOX/.P.p.n.7.#.#.*.*.@.` C.Y.iX`.(.!.E.!.[./.M.n.8.7.$.@.",
"BXkXdXnXVXF.:.;.[ #.+.&.$.;.} G.iX).}.(.(.XX XM.p.1.+.<...*.*.{  .Y.^.OX(.hXm.n.<.&.<.#.] @.-.G.eXiXiX}.[.(.E.[.(.R.r.8.@.*.9.&.",
"jXVXnXnXY.i.V.7.+.*.+.>.@.` S.rXpX`.sX`..X XB.p.n.<.$.*.+.*.{ { B.rXR.XX}._.s.:.0.<.7.0.;.A.bXvXxX`.).[.(.(.[.(.`.T.| :.0.&.w.3.",
"kXaXkXjXs.a.7.<.3.*.+.` -.G.jXhX`.iXxXiXgX Xi.a.%.&.9.&.X.>.p.R.pXfXBXxX'.iXeXa.h.Z.0.8.wXjXkXiXiX).{.[.].[.(.].)._.R.:.8.0.4.Z.",
"kXhXaXjXi.1.8.#.9.0.;.S.eXjXuXiX`.zXaXiXgX Xm.;.9.3.X.` >.wXNXhXiXf.f.u.nXzXjXrXs.,.:.S.MXdXuXhX`.{.}.{.{.].[.[.).sXeXeX8.| m.yX",
" XgX.X.XT.p.8.0.0.V.wXNXiX`.}.`.zXhX_.sXdXMXrXC.4.1X, o u NXgX}.dXy.O < aXfXkXuXaXM.d.bXBXiXzX_.hXhX}.}.{.{.].}.}.{.}.uXrXf.P.NX",
" X/.(.`.lXT.n.:.1.F.NXuX`.}.}.}.zX`.cXsXfXpXBXrXC.,., o O U.mXcX'.< O & qXcXiX}.dXiXnXpXdXiX`..X XiX{.{.}.[.].}.].].[.(.`.hX_. X",
"[.[.[.[..XlXR.M.f.rXhX`..XXXoXoXzXsXsXfXsX}.OX.X XS.j.7 $ F P qXfXc.& & L U.cX}.iXiXdXpXaXkXdX{.iX`.{.|.[.{.[.(.[.[.!.E.[.|.(.(.",
"|.|.|.[.(.gXlXrX_.lX.X.X.XXXoX(.oX}.}.}.[.OX+X^.^. XcXt.F Y K P qXmXG G K A U.}.dXiX).iXiXkXsXsX{.[.].].[.E.W.E.!.E.[.~.[.!.W.[.",
"{.{.{.|..X X_.gXxX`..X.X.X(.oXoXOX+XW.W.^.Q.L.J.^.XXoXt.J U I S K qXF R Y Y A qXiX.X}.fXsXiXsX}.[.[.].!.!.W.Q.Q.E.!.E.|.E.(.|.E.",
"sXsX{.}.zXhX.XhXzXzXoXoXOX.X(.OX~.L.^.^.L.L.J.J.L.^.+Xl.S T T I H v.l.J I U S u.dX`.[.[.fX{.sX(.].!.].!.!.!.W.!.!.~.[.]..X'.`.iX",
"sXhXsXsXpXxXkXlXzXzXzX[.OXOXW.!.K.J.J.J.K.K.K.K.K.J.!.U.S Y I T K K 7XK I I I Z U.sX~.].].{.sX}.|.[.!.W.!.W.~.!.].[.(.'.hXaXf.D.",
"hX_.kXnXdXxXkXlX.XoX|.oXOXXX~.+XJ.J.J.J.J.K.K.K.~.^.^.|.v.S Y I ! J l.v.S I T S u.fX|.!.].|.P.P./.`.(.(.[.!.~.].E.(.hXuXaXD.a.a.",
"lX.XdXdXBXBXkXcXoXoXoXOXW.Q.L.J.J.~.K.+X^.J.+XK.^.^.N.N.fXP J U I Y F CX~ J U Y F iX{.].].E.m.p.D.R..X`.[.].[.[.}.`._.aXA.| ;.0.",
"hXkXVXmXBXBXzXhX.XzX/./.XX^.+XL.J.+XK.K.^.^.^.^.XXP.r.p.D.qXF Y I I S qX7XZ T I S U.{.(.'.p. .8.n.F.T.gX}.].[./.`. XR.m.-.{ ] ] ",
"kXMXvXnXVXdXzXoXlXT.M.M. XXXL.L.L.L.K.+X!.^.(..XP. .:.8.a.G.c.Z Y I H l.CXP Y U Z c.iXY.p.;.` ] ;.1.C.rXpX'.zX/.T.B. .[ @.$.+...",
"kXkXkXBXcXfXzXoX XS.n.m.C. XXXL.L.L.+XOX/..XgXN.:.} ] ] <.,.A.L J Y k G CXu.g Y K P M.| { @.$.+.] 7.| Y.pX}.sX_.M.:.;.] 7.+.e.&.",
"zXzXxXiXcX.XhXlXS.} ;.1.8.m.R.XX+X^.XX.XlXP.:.} [ #.@.+.+.4.d.c.C f j = c.4 = k H 4 s.[ >.@.$.$.%.{ s.kX`.(.'.P.p.1.9.*.@.+.+.+.",
"zX}.cXkXlXrXR.n.} >.] ] 7. .p.^.OX^.OXhXD.:.:.] <.+.%.$.@.=.F.c.& C R = b.4 d R j 3 V.#.$.%.@.@.[ a.eXiXoX`.iXi.n.$.&.7.$.[ ;.V.",
"zXxXkXkXjXM.:.[ @.@.$.+.#.:.i. X}.oX`.T.:.1.0.&.$.+.@.@.} A.kX0XA * ! j CXb.k R - 3 <.9.#.@.@.=.C.eXiX`.`.`.eXs.1.0.&.0.8.a.wXjX",
"dXBXBXjXM.p.8.@.<.@.$.<.[ -.Y.hXzX`.cXM.8.1.%.<.3.@.=.a.H.rXiXdXmXD ! H qXc.k Y 2 h.3.<.w.<.m.yXjXiXiXsX`.iXuXrXs.1.0.V.C.rXiX'.",
"DXbXkXF.n.8.7.&.$.$.*.+.| Y.hXoX`.hXlXeXp.:.7.7.0.1.wXjXhX_.'.iXbXP K H qXc.J H 6 h.0.0.a.S.NXuXaXsXiXiXcXiX`.kXjXA.} | T.`.].|.",
"DXbXkXs.8.<.&.e.3.@.<.S.rXgX.XiXhXkXkXNXrXm.7.0.n.wXjX`.(.(.[.sXnXu.H H qXu.H Z U.G.,.1.m.tX X}.sXiXiXsXiXiXiX`.`.gXB.D._.[.~.~.",
"dXnXBXF.>.0.3.4.1.C.tXNX X X.XhXkXNXdXnXMXNXC.} F.jX XXXXX[.[.}.mXz.H H qXL F P nXeXP.i.aXaX_.hXhXiXsX`.`.].|.].`.XX/.XXQ.E.!.~.",
"cXcXiXMXwX,.Z.Z.Z.wXY.P.gXiXhXBXnXmXmXmXnXBXrXF.uXhX.X.X(.oX(.fXmXc.H H v.L A c.fX`.pX).aX)..X X_.iX`.'.`.).E.|.].[.OXW.(.W.W.].",
"sXxXxXiXjXY.O.` @.o.o.' d.nXVX0XL u.mXDXnXbXkXBXfX}..XzXzXoXdXmXAXc.G K z.4 E AXxXP.`.zX].fX[.zXiX'.}.]./.W.[.E.[.(.E.W.|.W.(.[.",
"xXsXdXpXzXpXO.` g.h.6 < ' 0XqXA = 2 P AXDXnXVXsXzXfXsXcXfXmXL L W 1 d d j D 0Xc.6 7 cX(.fX|.].'.}.sX}.'..X`.sXsX(.{.`.(.(.[.`.(.",
"sX{.fXsXdXvXbXE & = = $ 2 u.G 1 u.L * W AXnXaXBXsXcX'.dXmXu.* d f j l j $ $ ; $ O j.fXzX).[.OX!.!.(.'.T.aXaXuXpXsX}.`.iX`.sX/.XX",
"cX).fXfXmXc.A f H J k H D = f J 7XqXG D b.AXVXaXiXdXfXmXu.$ d % h N N j $ $ 3 E 0XvXfX[.`.oXOX!.W.OXf.7 ' ' i.f.aXdXuX`.{.iX X X",
"}./.sXpXb.f S x n z M x x m l k h R 5X4 * v.DXBXkXaXU.u.H g d % % s l j j = u.AXxXsX}.Q.P.XXQ.W.!.(.T.i.a.Z.5.o.' f.hX{.|.[._.N.",
"/.`.iXU.C g x b v v v v b b M N k h R 7XC A 0XbXNXvXL f h N s % % % % % % * 0XaX}.(.T.M.r.D.XX(.cXsXqXy.: X.5 6 h.y.xX`.`.`.D.r.",
"{.{.fXu.Z ! / M v v v b c v B n N ! G 7X8X2 6 g.j.8Xg N n n s % % s s s % G AXdXkXrXC.1.V.n.F.MXc.L 1 D G D * * * E pXcXgXY.| V.",
"{.{.fXA J x.6X^ z v v b z b V l U 5XH z.CXt 1X9Xg.E k n B n V % s s s % % D mXhXR.s.<.` #.:.d.L 1 K z.6X5X5X/ R k f A U.P.,.@.] ",
"`.fXqXC ~ x.6X/ z v v z z x k s ! 6XK u.8X1XKXKXa - N n B B k s s % s % % d aXS.-.@.*.*.] o.4 * ~ v.7X7X7X7Xx.x.m I h * O.=.#.+.",
"sXnXqXA ~ 7X6X/ n v c B z m j D z.6XG u.CX2.3XUX3Xt j N n n N l ( ! Y k % = E d.o.<.$.&.$.X.* K 5X6X5X6X6Xv.7Xx.b b x g < ,.+.&.",
"'.dXqX1 R 6X6X6XY n z z B h E g.W ~ 1 qXVX0Xp GXJXKX;X) k M M n V N ! ! j % $ 2 3 6.y y 5.2 f Y x.5Xx.^ ^ ^ T I v v n m * 6 @.$.",
"hXiXI.2 H x.7X6X/ z z v c l 6 1Xu - L vXFXk.:XHXIXIXKX4XQ k k k N k j K k k G D ; 2.3Xh.> & J x Y T I x x z x z v v B M g 2 O.@.",
" XM.a.y.* ! 5X5Xx.z v v z f 6 9X,.< 0XFXj.2.IXIXGXIXJXKXKX4X4X; ) ) ) j k k j t a KXKXGX3 - m b M z z v b b z b z c v n g C d.H.",
"Y.p.1.,.4 d ! ^ I z v v n g 2 h.1Xy ZXg.a JXLXLXIXIXIXJXHXHXJX3X4X4X4Xt ) Q t Q p 1X3X1Xg.R h B n n n M z z z z z c v M g L aXrX",
"H.| 0.,.O.2 j m n v v v z N D 6 9X6.X.@ :XUXHXLXLXLXLXLXHXLXLXLX3X:X=X3X4X4X4X>X=Xy 1Xj.AXc.l n n m h k h l x M M z c x S v.}./.",
"rXM.;.Z.h.h.A g k x z z x h D 4 q.<X, @ p 3XPXHXLXLXLXLXHXLXLXLXIXGX,XJXIX>XGXLXKX:XZXNXVXmXD d f j W - f U l.x.( n M h P |.[.^.",
"xXMXG.,.a.h.bXc.P S S S S P qX0XX.Z.>   w i ,XIXHXHXHXPXLXHXLXLXHXJXUXHXLXIXIXHXJX3Xh.FXSXg.6 o.u h.k.E v.5X7X6X( k h J U.}.'.^.",
"fXnXNXG.,.F.SXDXmXmXv.U.mXmXmXbXh.5 o   X 8 e =XGXLXPXHXHXLXPXHXPXHXHXJXLXLXLXPXJXKX2.2.O.` w.<X<Xo.3 j.7X6Xx.~ Y l K U.fX'.[.Q.",
"dXdXBXNXeXjXnXpXnXmXfXmXsXsXdXbXZX>   X . X + i #X#X>XGXIXLXIXLXPXPXPXPXPXPXPXJXJX3Xi # X.<X<Xw.3.y 2 A F K Z f d l.qXfX|.E.|.~.",
"xXnXvXvXnXnXdXdXnXaXaXaX{.fXiXvX0Xr @ X . X + #X=X#Xe #Xi =X:X>X,X,X3X3X3X,X>X:Xp e w 6.<X<Xw.$.o.bXvXv.l.P P b.qXmXfX{.|.[.E.E.",
"MXaXnXnXVXiXdXdXdXvXpXpXsX{.{.VX8Xp $X9 X   9 *X#X+ + 8 9 w e i i i i w w r > 3 w # , <Xw.w.@.-.yXmXpXfXmXmXVXmXmXfX`.oX(.W.].~.",
"NXMXnXdXkXkXdXdXdXdXdXiXfX).sXnX2Xr *X;Xi 8 %X*X0 X   . . X X + + + r a r a r u y , <X<Xw.+.O.ZXbXdXiXdXxXfXBXpXsX.XgXgXB.B.XX'.",
"vXpXnXxXkXiXsXhXiXfXsXsX}.`.`.pX0X3 $X%X;X-X%X*X8 X X       .     o O.o     . . X.<X<Xq.` s.SXbXvXiXdXsXiXiXdXdXfXdXjXY.a.p.D. X",
"aXBXBXsXsX}.`..X`.sXsX).sX'.zXuXnXu q $X%X%X-X%X%X#X8 + X   . .   3 u       # 2.<X<X6.X.,.9XZXbXVXxXiXiXsXuXdXiXiXMXH.a.1.V.n.m.",
"sX`.{.}.(.(.XXQ.(./.`.sXsXcX].iXpX0X; 0 @X%X%X-X*X*X*X&X#X0 8 + + t u o o # y X.<X6.: 4.Z.a.F.SXvXiXsXiXiXkXiXNXeXD.;.<.] +.#.:.",
"(.{.[.!.W.!.(.XXN.f.T.hXiX'.`.`.hXVXg.9 0 @X@X@X%X*X-X%X*X&X&X=Xi a y O @ 2.2.2.5 # X.5.&.4.4.A.bXMXxXiXhXkXNXP.p.[ +.*.*.+.%.7.",
"[.E.W.!.~.!./.P.r.n.A.eXdXsX).`./.pXFXE q 0 @X0 @X@X$X%X*X%X%X&X;Xi @ 5 h.2.p @ # # X.3.] _ &.;.s.MXpXxXkXjXG.:.<.{ e...*.$.>.$.",
"~.~.W.Q.W.oXP.-. .8.1.s.eXfX`.iXsXpXNXd.; 0 0 0 9 0 0 0 0 0 #X0 0 i 2.,.y : # @ @ > y $.%.+.*.;.s.NXpXMXaXwXa.1.7.#.*.*.+.$.} 9X",
"~.!.Q./.T.M.| ;.] _ =.a.i.T.iXsXpXaXeXs.r @ q 0 8 + @ > r q @ r r p 5 y h.u & ; > 6.3.+.@.#.@.,.wXbXMXkXNXm.a.<.<.7.e.{ [ a.wXbX",
"~.Q./.P.i.} @.+.*.+.+.;.r.Y.sX}.iXuXd.s.1Xy ; @ @ @ y h.0X0Xj.k.j.g.G.ZXFX0X- 4 u 5.6.+.@.o.-.wXSXbXBXuXjXS.-.V.<.<.8.1.H.tXkXuX",
"!.W.N.p.8.@.3.&.*.e.#.} D.aXuXiXiXI.-.a.2.< 4 ; u d.G.bXVXnXMXVXSXDXbXDXNXd.< 3 O.3.9.@.,.2XtXbXMXdXxXsXxXrXS.-.n.V.a.wX XhX/.hX",
"[.R.r.8.<.3.$.@...] [ S.jXiXhX`.sXP.-.V.o.< 4 y.G.wXnXiXuXzXkX_.zXaXBXpXVXI.6 g.4.3.q.q.ZXFXSXvXdXsXfXsXsXjXT.F.:.-.D.rX.X.XOX'.",
"(.N. .8.#.<.9.@.=.C.wXjX`.iXiXhX`.uXI.-.h.,.d.I.gXXX}.fXiXuXgXkXiXkXBXvXbXSX2Xa.0.0.Z.yXZXSXbXBXxXiX}.oX(.XXhXgXD.M.jXuX`.(.iX.X",
"}.P. .0.8.<.V.8.H.rXlX(.).iXxX`.sXeXNXwX1.-.C.tX/./.{.fXdXpXkXjXhXkXjXbXDXFXZXwX<.;.yXtXSXNXBXkXzX`.`.oXXX'.(..XiXuXxXiXsXsX`.sX",
"(. XY.:.8.n.8.Y.gXfX'.|.zX).).iX XhXuXjXY.d.jXjXiXdXmXfXsXsXkXiXiXxXMXbXFXFXNXNXY.P.NXiXkXkX XhX.XXX`..X[.(.XX.XpXpXnXnXdXfXpXiX",
"{.`.R.Y.p.} D.jXsX}.|.[.[.sXsXdX`.`.zXzXhXiXpXxXpXpXdXdXdXiXsXzXzXiXkXDXmXbXMXkXlXBXsXcXxXhX.X.X.X.XiXiX`.}.}..XxXvXvXmXnXdXdXpX",
"E.}.`.T.T.f.eXuX/.sX{.oXfX).zXuXiXsX}.`.oX_.kXpXiXsX}.sXxXxXzXoXsXdXmXnXkXkXkXxXhX`.fXsXsXhXiX{.}.}.hXiXiXsXsXxXMXbXbXbXnXmXxXkX",
"].[.}.`._.iXiXuX`.iX}.|.}.`.`.dXfXfX}.}.`.zXhXhXfXsXoXoXdXxX|.oXsXxXnXdXxXkXxXhXhX}.fXdXsX/.fXfX{.}.dXpXsXfXfXxXVXSXSXAXaXdXxXkX"
};
