/* XPM */
static char *_e7282bb94e2404af8b59780cbfcc33eyY1Vi0J3MvDn9w6o[] = {
/* columns rows colors chars-per-pixel */
"64 64 256 2 ",
"   c #0B0A0B",
".  c #0C0C1B",
"X  c #0A0914",
"o  c #130917",
"O  c #0D111B",
"+  c #17120F",
"@  c #2A170F",
"#  c #322814",
"$  c #0A0D27",
"%  c #0B1327",
"&  c #151729",
"*  c #0A1738",
"=  c #191A38",
"-  c #100C2E",
";  c #241C2B",
":  c #172338",
">  c #26263A",
",  c #332C30",
"<  c #58341B",
"1  c #4A2B13",
"2  c #6B3A15",
"3  c #743C15",
"4  c #723B09",
"5  c #593625",
"6  c #4A342F",
"7  c #643A27",
"8  c #784415",
"9  c #744510",
"0  c #584B32",
"q  c #6F4E30",
"w  c #7C653E",
"e  c #54400E",
"r  c #091C44",
"t  c #171B46",
"y  c #151D54",
"u  c #192547",
"i  c #1A2656",
"p  c #0D2B4F",
"a  c #262849",
"s  c #383648",
"d  c #252B56",
"f  c #2A3358",
"g  c #343859",
"h  c #303046",
"j  c #19386B",
"k  c #14336E",
"l  c #293768",
"z  c #363A67",
"x  c #28326B",
"c  c #201C41",
"v  c #453A4A",
"b  c #34474E",
"n  c #184678",
"m  c #185070",
"M  c #364475",
"N  c #2D4B71",
"B  c #2A6776",
"V  c #11454C",
"C  c #4C494F",
"Z  c #6B594C",
"A  c #5B6D56",
"S  c #6F6954",
"D  c #4A556F",
"F  c #4E6F72",
"G  c #6F7271",
"H  c #605E6B",
"J  c #354634",
"K  c #84440C",
"L  c #874A18",
"P  c #9B5417",
"I  c #934F11",
"U  c #A65A16",
"Y  c #AF5B12",
"T  c #BC6B1B",
"R  c #B76518",
"E  c #B76716",
"W  c #885329",
"Q  c #8D512A",
"!  c #906D36",
"~  c #B17030",
"^  c #A25D26",
"/  c #C8731D",
"(  c #C36A17",
")  c #C87824",
"_  c #C8762A",
"`  c #887756",
"'  c #90734D",
"]  c #A77948",
"[  c #A8735B",
"{  c #8A7B69",
"}  c #867C75",
"|  c #B16D72",
" . c #738970",
".. c #55827D",
"X. c #B8853C",
"o. c #CD832B",
"O. c #CA8A38",
"+. c #D48C38",
"@. c #CB943B",
"#. c #D3933D",
"$. c #D9953C",
"%. c #D1832B",
"&. c #E3973C",
"*. c #CD821D",
"=. c #928254",
"-. c #B78855",
";. c #B28C51",
":. c #938971",
">. c #AA936D",
",. c #AEA872",
"<. c #C68946",
"1. c #CD9645",
"2. c #D39B44",
"3. c #DB9C43",
"4. c #D49C4C",
"5. c #D89846",
"6. c #C89957",
"7. c #D59E51",
"8. c #C98B4F",
"9. c #E49D47",
"0. c #D9A24B",
"q. c #D4A253",
"w. c #DCA453",
"e. c #DAA75B",
"r. c #E2A34D",
"t. c #E3AC5C",
"y. c #E1A755",
"u. c #E6B15E",
"i. c #DCAD63",
"p. c #DCB265",
"a. c #C8AE77",
"s. c #E2AB61",
"d. c #E7B668",
"f. c #EEBD71",
"g. c #C58E65",
"h. c #F3C476",
"j. c #1A599A",
"k. c #174D8A",
"l. c #27558C",
"z. c #19669A",
"x. c #26679B",
"c. c #36789A",
"v. c #306D8D",
"b. c #175BA8",
"n. c #165DB1",
"m. c #0F57A7",
"M. c #1A65AB",
"N. c #1B6CAC",
"B. c #1766A8",
"V. c #1D73A9",
"C. c #1665B1",
"Z. c #1966B1",
"A. c #1A6AB4",
"S. c #0D65AF",
"D. c #246BA7",
"F. c #2579A8",
"G. c #2E75B0",
"H. c #255BA4",
"J. c #4B758F",
"K. c #787C84",
"L. c #6E7892",
"P. c #757DA1",
"I. c #235CA3",
"U. c #8D6D91",
"Y. c #AC6897",
"T. c #E8769B",
"R. c #D36FA6",
"E. c #D5699C",
"W. c #2B879D",
"Q. c #34889B",
"!. c #3A9196",
"~. c #2A87A6",
"^. c #3289A4",
"/. c #3A9AA2",
"(. c #3595A3",
"). c #3C88BA",
"_. c #3DA2A5",
"`. c #3FA59F",
"'. c #5A8788",
"]. c #468896",
"[. c #49989A",
"{. c #579797",
"}. c #4C878C",
"|. c #718D92",
" X c #47A99C",
".X c #52A89D",
"XX c #449DA4",
"oX c #4A90AA",
"OX c #6D91A9",
"+X c #43A4A4",
"@X c #46AAA5",
"#X c #4BABA5",
"$X c #45A4A9",
"%X c #4BA9A8",
"&X c #55ACA7",
"*X c #4DB2A5",
"=X c #4EB4A9",
"-X c #48B8A0",
";X c #54B2A5",
":X c #5AB4A6",
">X c #55B4AA",
",X c #5AB5AB",
"<X c #5BB9AD",
"1X c #56B9A9",
"2X c #59B8B1",
"3X c #52A9B5",
"4X c #66BAB6",
"5X c #6AADAC",
"6X c #6FA29D",
"7X c #3985C9",
"8X c #4C95D3",
"9X c #62A9D4",
"0X c #72CBC5",
"qX c #68C1BB",
"wX c #999899",
"eX c #8D8D8C",
"rX c #A8998A",
"tX c #99A39A",
"yX c #B0AA91",
"uX c #8B91A3",
"iX c #94ABAF",
"pX c #A9A7A8",
"aX c #B6B7AB",
"sX c #AFB4B4",
"dX c #A09AA6",
"fX c #CBB594",
"gX c #CABAB7",
"hX c #CA938A",
"jX c #BAC6B8",
"kX c #CAC28E",
"lX c #D0CAB1",
"zX c #EDD9AB",
"xX c #F6EBB3",
"cX c #F4DA9C",
"vX c #B3BAC9",
"bX c #81AEC8",
"nX c #C6BDC3",
"mX c #89C7C9",
"MX c #BBC6C7",
"NX c #BBD3D5",
"BX c #BBEBEC",
"VX c #C7C8C9",
"CX c #D7D7D8",
"ZX c #D0CED0",
"AX c #E1DCD9",
"SX c #F0EED0",
"DX c #D2D9E6",
"FX c #D8EDF1",
"GX c #E4E6E8",
"HX c #FCFAEA",
"JX c #ECF5FB",
"KX c #FCFDF4",
"LX c #FDFDFC",
"PX c #F5F7F8",
"IX c #EDECEC",
"UX c #DBE0DA",
/* pixels */
"<X<X<X<X,X>X<X,X<X,X<X:X:X:X:X>X2X2X>X>X1X1X1X;X1X:X<X5X:X:X:X;X:X:X:X;X;X-X1X1X1X=X1X=X>X;X;X:X;X*X;X;X:X&X;X;X*X;X;X.X:X-X-X-X",
"<X<X<X<X4X<X<X<X<X<X<X<X<X<X<X<X2X<X,X,X:X:X>X>X1X>X<X,X:X1X1X<X:X:X:X;X:X:X1X1X>X>X2X,X:X:X;X;X;X;X;X&X;X;X;X;X;X;X;X.X.X;X;X-X",
"4X<X<X<X<X<X4X2X<X<X2X2X<X<X<X1X<X<X<X2X<X5X<X<X1X<X,X:X:X:X>X2X1X<X>X1X:X1X:X1X,X,X1X<X>X:X;X:X;X;X:X&X;X;X*X1X*X;X;X:X;X;X;X*X",
"<X<X<X<X,X>X,X2X,X,X,X,X<X>X<X:X,X>X,X,X5X<X,X2X2X<X<X:X1X1X>X2X;X:X>X<X>X<X:X:X,X<X<X<X<X:X;X-X;X;X;X;X;X:X*X*X*X:X;X:X&X;X:X:X",
"1X:X>X>X>X>X,X>X>X>X>X1X<X<X:X>X,X,X,X,X,X,X,X2X=X2X3X<X:X:X<X1X=X,X,X<X,X<X,X,X<X1X2X<X1X<X>X>X;X;X;X;X;X;X*X*X=X>X&X>X:X,X&X,X",
":X>X&X,X,X>X>X>X=X>X>X>X>X>X>X>X,X2X>X>X=X1X<X<X2X3X&X6X5X5X>X>X2X,X2X2X,X>X,X,X<X<X=X=X>X>X>X,X;X;X:X;X;X;X;X*X=X>X>X&X&X,X,X&X",
">X>X,X>X,X&X>X>X>X>X>X>X>X>X=X=X=X=X;X:X=X1X&X6X5XOX|.uX|.OX5X5X>X&X&X&X&X>X&X>X=X=X=X=X;X>X>X&X;X*X.X.X#X#X*X*X=X=X>X>X>X>X&X&X",
";X;X>X;X;X>X>X>X=X>X>X=X=X>X>X=X=X=X;X&X:X&X|.|.|.K.Y.Y.U.U.6X5X4X4X4X2X>X>X&X=X=X-X*X=X=X=X>X%X;X*X*X*X*X;X;X*X=X=X>X*X>X#X>X=X",
";X;X.X&X&X>X=X>X%X%X=X#X=X*X=X#X#X#X>X&X3XOXU.Y.E.Y.E.E.Y.Y.uXbXmX0X0X4X4X2X>X=X=X#X#X*X%X&X%X=X=X*X*X#X;X#X*X=X#X*X-X-X@X X-X.X",
"&X#X#X#X#X#X@X%X%X%X#X#X%X#X*X#X>X*X@X&X&XL.Y.R.E.T.R.E.R.R.P.{..X X&X:X4X0X0X>X X#X#X#X%X%X%X3X%X#X#X@X@X#X@X@X*X X X`.-X`. X X",
"#X X#X#X#X@X$X%X%X%X%X@X@X@X$X@X+X%X$X&XOXU.Y.E.T.T.E.E.Y.U.OX{.[.#X&X+X[.#X2X0X4X6X.X.X&X+X+X$X@X@X@X@X%X@X%X%X X X X-X X X.X.X",
"%X%X%X%X%X@X%X$X%X$X$X$X$X$X@X$X3X_._.3XJ.U.R.R.Y.E.R.R.U.P.{.[. X X+X[.@X+X3XmXmX5X{.{.[. X%X+X$X+X@X$X@X+X@X=X@X_.`.`. X;X.X{.",
"%X+X+X@X$X$X$X$X$X$X$X$X$X$X$X$X+X$X_.XX5XP.U.U.U.Y.U.U.L.OX[.`._.+X_._.@X[.4XFXBXmX5X{.{..X X X+X.XXXXX_._._.`.`.`._.@X[...B V ",
"XX+X+X+X$X_.$X$X$X$X$XXX$X_./.XX/.+X_.XXbXOXP.P.U.L.L.L.{.[./._./.(._./._.+X&XmXFXBXiX|.'.{..X[.[.XXXX+X_._._.`._._. X[.B V : O ",
"/./././.(./.(.(.).(././.(.(./.(.!././.3X4X^.!.oXoXoX{.J...}.[.(./.!.(.!./.!.].[.mXJX6XiX'.{.{.[.].XX[.XX`._._._.(./.`.%Xm : % % ",
"(.(.Q.(.(.(.(.(.(.(.(.^.(.(.(.^.Q.Q.Q.9X(.^.^.^.^.^.}.F  ...F F }.}.!.!.!.!.].}.'.iX'.iX'...'.'.].].[.!.(.(.(.(././.!. Xm p : * ",
"^.W.W.W.~.~.~.(.).~.W.W.W.~.~.).~.~.F.9XW.W.W.V.F.c.F A ` =.=. . .A A  .....}.J.J.'.F 6X|.F '.].].Q.Q.(.~.~.~.~.(.(.Q.oXp p * % ",
"~.~.F.W.~.~.~.~.~.~.~.~.~.~.~.~.~.V.oXoXc.W.W.V.F.c.J.F =.;.;.;.=.=.=.=. .A J.].J.J.'.'.{.J.}.].Q.Q.^.~.~.~.).~.~.W.^.c.p p t * ",
"F.F.F.~.~.V.~.A.G.G.F.F.~.~.V.F.V.V.9X~.V.V.V.F.V.c.J.D Z ' ] ! =.;.;.=.A F Q.c.J.c.J.L.bXJ.].J.Q.c.~.~.~.~.G.~.~.F.c.B t r u * ",
"V.V.z.D.V.V.V.A.G.A.V.V.V.V.V.N.V.N.9XF.V.V.V.V.D.v.B 6XAX>.' ' w X.;.=.F B c.F.G.J.J.J.bXc.c.G.F.F.F.F.~.V.~.~.~.F.B N r t t * ",
"B.D.V.N.x.x.D.M.A.A.A.A.N.N.N.N.A.B.9XG.V.A.S.V.z.B b iXKXrX:.HXkX;.-.' F v.x.z.D.c.c.J.9Xc.D.D.D.V.V.V.F.F.V.V.F.x.n n p r r r ",
"B.M.B.B.k.n l.D.A.A.A.A.C.Z.Z.M.Z.j.9XF.B.N.S.z.B 5XjXUXUXeXrXHXzX>.-.>...B x.V.V.x.c.c.9Xx.D.G.V.V.V.V.V.V.V.V.x.l.j j r r r * ",
"M.M.B.j.V * k z.A.S.C.N.Z.Z.C.Z.N.j.).~.z.B.z.z.'.SXSXyXS S yXSXkXzXxXxXSX{.l.z.B.D.H.x.oXB.D.N.A.N.V.N.N.V.V.V.x.n x x r r - $ ",
"M.Z.S.j.k * j k.A.S.Z.C.Z.C.Z.Z.C.B.V.).B.B.z.l.|.SXxXkX` { ` kXSXxX;.fXxXaXv.B.N.D.D.G.G.B.M.A.A.N.A.N.N.S.N.V.k.j k y y * $ $ ",
"n.n.M.j.r * m l.B.S.C.N.C.C.Z.Z.C.B.B.8XG.b.M.l. .SXxXxX,.,.lXSXzX,.q kXxXyXW.W.B.D.M.9XD.M.M.A.A.A.Z.Z.S.B.D.G.n j x k y t - X ",
"C.C.M.k.r = f m N.B.Z.C.n.A.Z.M.C.B.B.~.7XA.M.x.B lXjX,.,.lXyX' e # ,.xXxX .B z.j.l.D.8XN.A.N.Z.A.A.M.j.D.x.H.x.n j d d t t - o ",
"n.M.j.k.r * l j b.C.C.C.M.C.n.n.m.B.C.m.8XG.b.b.B ..xXlXyXlX' 1 e >.xXxXyXC m v.l.l.v.G.M.C.C.S.Z.D.H.J.F D D F b d d y r * $ $ ",
"n.B.j.n r * i j I.n.n.C.n.n.b.n.j.b.Z.m.H.8XZ.b.F.B 6XjXfXgXrX>.a.xXcXhXA F {.5XuXJ.J.N x.b.B.B.D.l.F G { ` =.} H Z s t * * $ $ ",
"n.b.j.m r * i l k.n.b.n.C.n.m.k.k k.j.b.b.Z.8Xn.z.z.N J.pXaXkXlXzXfX=.>.tXtXiXiX|.sXvXf l.m.j.k.k.D :.>.;.X.-.-.-.[ C ; * $ .   ",
"n.n.j.n * * t l n H.n.S.n.b.n.k.p p k.j.b.b.n.7XA.j.l.l.b b A ,.,.' ;.q # O J G ZXHX|.K.OXP.J.J.D F ` ;.X.X.@.O.<.<.w # & $ X   ",
"n.n.l.j * * * l x k.b.m.m.m.b.k p p k j.j.n.m.m.7XG.H.l.N G tX:.J 1 ' 0 v eXJXMXVXwXeXPXPXPXGXJXDXwX{ ' ] ;.X.<._ 8.' # . X X X ",
"b.H.k.i * $ = g x j k.j.b.j.k.k y t l n k.k.k.k.n l.J.l L.iX|.J , q { fXnXIXZXsXpXeXjXKXKXCXIXPXLXKXUX:.! ;.;.<.~ g.[ 5 + X   o ",
"b.k.j r * % = a l P.P.k.l.k.k * - & t u i l.J.OXOXiXvXdXsXdXZXUXjXZXIXaX} pXnXCXLXCXaXKXKXAXLXLXFXZXGXIX,.! <.O.8.<.-.5 + o   o ",
"k.k i * $ - - = g NXvXp k k i D H uXsXvXvXvXFXJXJXDXLXVXG  .sXpXG  .sXlXVXSXKXKXKXIXtXtXsXlXJXDXDXGXIXPXaX' ~ ] ] 8.] 1       o ",
"n k p $ $ & & = h uXJXiXl.L.MXDXGXAXPXLXLXDXLXLXLXCXLXIXpXtXZXDXwXG CXLXHXSXSXSXSXHXGXCXMXb H sXJXPXLXKXyXW ] _ 8.8.W # + X X X ",
"k k u O $ $ = = : H JXPXDXdXCXKXLXCXPXLXPXGXJXJXLXIXGXMXG eXLXLXZX|.UXLXxXkXa.a.zXHXPXLXPX .; DXLXLXKXSX>.' ] g.8.[ 6 o   X X X ",
"k j : O X & O . s nXPXGXGXpXlXKXKXAXPXLXLXJXFXDXiXL.f g a G LXLXIXVXGXHXzX=.9 I p.SXKXLXLXCXC GXCXIXSXyXq ! Z ' q 5 ; $ X o . . ",
"k i > X O & O b VXLXAXVXPXpXZXKXLXCXZXvXeXF D f x d y t t C ZXLXLXGXHXHXxX! 9 P p.xXHXLXLXsXVXLXIXHXSX` ' 0 6 , # + % & X . X X ",
"i u : O O X h ZXPXPXLXPXnXH wXdXK.v > h > f z k k k d i d a dXLXLXMXCXKXSXa.@.6.p.cXHXLXPXG wXAXLXLXlXw ;.0 , = & % & $     X   ",
"y u % O % & G LXLXLXZXD g h g ; = = > = a d l.M k k y x d a H LXLXHXlXSXSXxXcXcXxXxXHXLXCXwXZXeXeX} Z [ [ Z g t = & - o o       ",
"t = & . % $ G LXHXG s z z z z a ; = - c a d z l.x y d f z a v sXLXKXaXGXKXHXKXHXHXHXKXKXCXnXPXPXIXgX7 ' | 7 g y u * % o o o . X ",
"= $ o O % . & b J + > z M z z d ; = c = d a g z M x d d z d > |.LXLXlXZXLXLXLXLXKXLXPXLXCXeXLXLXPXnXpX` { 6 a y u * % . o o o . ",
"- $ o X o % & & & & > d M x z z t = c c d d z x z x x x d h c C FXLXGXMXIXLXLXLXKXKXLXLXJXwXsXLXLXAX>.S C v a c = % % . o o o o ",
"& o o   O . O & & & > a M z f z d c t t d c x y M M M z d g a a sXPXPXZXPXLXLXLXKXKXKXLXLXPXeXJ G G Z v v a c c : % $ . X o o o ",
"+ o     o O & = ; = = a g z g z x y y y d y x x z M M z z a a c G GXPXZXGXLXLXLXLXLXLXPXIXiXs > C v v s z g a c = % $ X o +     ",
"+ +     o o - ; = ; ; a h M g d x x t t d c d d g z z z v v ; , # dXIXPXPXPXPXPXIXIXAXwX} |.; s 6 , , C v h > > ; ; + + + + @ @ ",
", +     o   o ; ; = > a d z z d f z = ; c c 6 , 6 v v v 6 < 1 1 1 < q rXgXZXVXaX>.q # rXHXAX@ 6 5 1 7 5 5 7 7 5 < < < < < < 1 < ",
"# + + @ @ o @ ; ; ; ; ; 6 v v h s v ; 6 7 7 7 7 7 Q Q Q W Q Q L Q L 7 1 q aXpX, 1 < 0 lXHXSX0 7 q Q 3 q L 3 3 8 3 3 3 3 3 3 2 3 ",
"1 1 e < 5 1 @ 1 1 1 1 5 7 7 5 5 5 2 < 2 2 4 L Q I P ^ ^ U U I Y I P ^ 8 ' SXPXZ 7 Q 7 :.HXIX{ 1 W L K K L 8 9 9 9 9 9 4 4 3 3 3 ",
"9 e 9 2 3 2 3 8 q W W 8 L L L L W L I Q P U U U U U U P Y Y Y Y Y U P W Z gXCX{ Z q Z Z ZXVX:.Z 3 ^ U I P P K 9 9 4 4 4 9 4 3 K ",
"K 4 9 4 K K L P P P U U ^ U P P P P U U U R R T ( ( R E ( Y ( ( Y T L [ } U.eXdXyX0 rX:.U.eXdXaX2 ^ Y R R U P K K K K 4 K 3 K K ",
"U U U P P U R U Y Y Y T ( T ( T U R T Y R E T / ( / / ( ( Y ( ( ~ ~ q ` gXVXnXnXgX0 wXCXVXZXCXhX3 ~ Y R T E U P I I I I I I L K ",
"( _ T T R ~ _ ( / _ ) _ o./ / ( ( / ) T T ) ) ) / / / ) / / _ ~ ^ Q q { sXZXZX} rXZ } nXnXnXhX[ Q ^ ~ T E ( E U R ^ Y ^ U ^ I I ",
"_ _ o.o.o.o.%._ _ %.+.9.3.9.&.&.&.&.5.+.O.5.$.3.+.&.%.+.&.9.+.~ ! ` >.gXZXVXgXZ q Z dXZXZXgX| Q [ ~ ~ T E T E T ( ( ( R U Y Y Y ",
"+.+.O.#.2.2.5.9.r.9.7.r.r.r.9.9.9.9.r.r.1.O.@.@.&.3.$.5.5.7.<.! yXaXpXwXVXZXU.eXpXsXvXNXZXnXE.Q g.] _ _ ) / / ) _ _ / ( E E Y Y ",
"5.5.O.3.0.7.5.t.y.y.y.y.y.y.5.5.3.3.5.t.7.1.1.X.#.3.3.y.w.7.-.! gXCXMXwXsXVXeXsXpXiXsXNXVXZXfXg.! ~ 8.+.+.+.$.o._ _ %.*.*.( ( E ",
"1.5.1._ 5.4.4.0.7.r.0.@.#.0.@.@.3.9.3.0.0.q.1.1.1.5.1.2.e.q.;.q { sXMXMXjX .|.VXsXsXuXMXNXVXpXw q X.0.2.+.$.#.@.9._ o.+.+.%.) o.",
"<.1.+.O.5.5.1.2.0.7.@.O.@.@.2.@.$.r.2.@.@.q.e.q.w.2.#.1.0.q.1.! 0 Z S A G C H VXDXZXMXjXsXS S 0 ! X.2.$.$.0.3.2.5.+.O.#.+.o.o.o.",
"$.#.+.#.5.+.@.1.2.0.0.#.2.3.0.0.y.r.0.@.4.q.q.1.4.5.0.0.4.q.e.;.;.! 0 0 0 0 A G K.eXeXS Z 0 w -.6.0.3.&.$.3.2.#.2.2.#.#.#.<.#.O.",
"O.O.O.O.#.#.1.2.4.w.u.t.y.u.d.u.0.w.u.d.d.q.4.4.w.t.t.t.e.p.q.q.-.,.6.;.>.' Z 0 S { G 0 0 ;.;.i.q.2.3.&.&.3.3.5.1.2.1.1.1.1.1.5.",
"#.@.O.O.O.4.t.u.p.d.f.f.u.d.h.h.p.i.d.f.h.f.f.e.q.i.e.w.p.u.t.p.p.p.e.e.e.6.6.;.>.;.' ] ;.1.@.2.2.0.$.&.&.5.9.5.0.$.$.#.O.1.1.<.",
"r.0.0.0.w.s.d.d.d.d.f.d.p.d.f.d.p.p.f.f.d.s.d.e.e.e.e.7.0.0.y.t.i.q.u.w.e.y.0.6.6.6.8.1.0.@.$.$.@.@.$.&.&.5.5.<.$.$.@.#.O.O.O.+.",
"7.y.t.s.i.d.e.e.e.s.p.p.p.p.p.p.p.p.p.d.d.s.t.e.y.e.e.e.0.0.0.3.1.7.q.4.q.q.q.e.e.e.e.e.y.0.@.@.@.@.+.$.+.5.5.#.o.o.*.*.o.o.%.+.",
"s.s.e.e.q.e.e.s.i.i.p.p.p.p.e.p.p.d.u.p.e.u.w.t.u.d.y.e.r.0.$.3.7.4.q.q.q.q.0.q.e.q.q.e.w.w.0.@.@.$.+.+.5.+._ @.o.o.*.*.o.o.%._ "
};
